<svg width="80" height="80" viewBox="0 0 80 80" fill="none" xmlns="http://www.w3.org/2000/svg">
<g clip-path="url(#clip0_142_1717)">
<path d="M60 25.6V-1.33333H46.6667V-8H40V-1.33333H20V-8H13.3333V-1.33333H0V58.6667H35.62C37.3474 62.3089 39.9898 65.441 43.289 67.7572C46.5883 70.0734 50.4318 71.4945 54.4443 71.8818C58.4568 72.2691 62.5011 71.6094 66.1825 69.9671C69.8639 68.3248 73.0565 65.7559 75.4488 62.5113C77.841 59.2668 79.351 55.4573 79.8315 51.455C80.3119 47.4526 79.7464 43.394 78.19 39.6754C76.6337 35.9569 74.1397 32.7054 70.9516 30.2384C67.7635 27.7715 63.9902 26.1733 60 25.6ZM6.66667 5.33333H13.3333V12H20V5.33333H40V12H46.6667V5.33333H53.3333V15.3333H6.66667V5.33333ZM56.6667 65.3333C53.3703 65.3333 50.148 64.3559 47.4072 62.5245C44.6663 60.6931 42.5301 58.0902 41.2687 55.0447C40.0072 51.9993 39.6772 48.6482 40.3202 45.4152C40.9633 42.1821 42.5507 39.2124 44.8816 36.8816C47.2124 34.5507 50.1821 32.9633 53.4152 32.3202C56.6482 31.6772 59.9993 32.0072 63.0447 33.2687C66.0902 34.5301 68.6931 36.6663 70.5245 39.4072C72.3559 42.148 73.3333 45.3703 73.3333 48.6667C73.328 53.0853 71.5704 57.3215 68.4459 60.4459C65.3215 63.5704 61.0853 65.328 56.6667 65.3333Z" fill="#00B730"/>
<path d="M60 35.3333H53.3334V50.0466L60.9767 57.6899L65.69 52.9766L60 47.2866V35.3333Z" fill="#00B730"/>
</g>
<defs>
<clipPath id="clip0_142_1717">
<rect width="80" height="80" fill="white"/>
</clipPath>
</defs>
</svg>
