<svg width="32" height="32" viewBox="0 0 32 32" fill="none" xmlns="http://www.w3.org/2000/svg">
<path d="M15.6133 1.3413C15.1466 1.34165 14.6992 1.52719 14.3692 1.85718C14.0392 2.18717 13.8537 2.63463 13.8533 3.1013V7.19997C13.847 7.31542 13.7968 7.42409 13.7128 7.5036C13.6288 7.58311 13.5176 7.62743 13.402 7.62743C13.2864 7.62743 13.1751 7.58311 13.0912 7.5036C13.0072 7.42409 12.9569 7.31542 12.9507 7.19997V3.1013C12.938 2.64273 12.747 2.20718 12.4182 1.88729C12.0894 1.5674 11.6487 1.38842 11.19 1.38842C10.7312 1.38842 10.2906 1.5674 9.96178 1.88729C9.63297 2.20718 9.44194 2.64273 9.42932 3.1013V7.19997C9.42932 7.31949 9.38184 7.43412 9.29732 7.51864C9.2128 7.60315 9.09817 7.65063 8.97865 7.65063C8.85913 7.65063 8.7445 7.60315 8.65998 7.51864C8.57546 7.43412 8.52798 7.31949 8.52798 7.19997V3.1013C8.52798 2.63416 8.34241 2.18616 8.0121 1.85585C7.68179 1.52553 7.23378 1.33997 6.76665 1.33997C6.29951 1.33997 5.85151 1.52553 5.5212 1.85585C5.19088 2.18616 5.00532 2.63416 5.00532 3.1013V8.6533C5.00363 9.8672 5.35995 11.0546 6.02968 12.0671C6.69942 13.0795 7.65284 13.872 8.77065 14.3453C8.60739 17.3413 8.20612 20.3196 7.57065 23.252C7.19292 24.2156 7.03543 25.2515 7.10972 26.2839C7.184 27.3163 7.48818 28.319 7.99998 29.2186C8.37426 29.7001 8.86041 30.0829 9.4162 30.3339C9.972 30.5848 10.5807 30.6963 11.1893 30.6586C11.7978 30.6961 12.4061 30.5845 12.9617 30.3335C13.5172 30.0826 14.0032 29.6999 14.3773 29.2186C14.89 28.3194 15.1951 27.3169 15.2703 26.2845C15.3455 25.2521 15.1889 24.216 14.812 23.252C14.1773 20.319 13.776 17.3403 13.612 14.344C14.7294 13.8707 15.6824 13.0784 16.3517 12.0662C17.021 11.054 17.3768 9.86679 17.3746 8.6533V3.1013C17.3739 2.6345 17.1881 2.18705 16.8579 1.8571C16.5277 1.52715 16.0801 1.34165 15.6133 1.3413ZM16 8.6533C16.0015 9.6695 15.6805 10.66 15.0831 11.4821C14.4858 12.3042 13.643 12.9155 12.676 13.228C12.5313 13.2754 12.4064 13.3694 12.3208 13.4953C12.2351 13.6212 12.1936 13.772 12.2027 13.924C12.3769 17.1934 12.8093 20.444 13.496 23.6453C13.9546 25.184 14.1386 27.2453 13.276 28.3973C13.028 28.7051 12.708 28.9471 12.3443 29.102C11.9806 29.2569 11.5844 29.3198 11.1906 29.2853C10.7969 29.3202 10.4006 29.2577 10.0367 29.1033C9.6728 28.949 9.35248 28.7074 9.10398 28.4C8.24132 27.2426 8.42532 25.1866 8.88398 23.648C9.56887 20.4315 10.0017 17.1665 10.1786 13.8826C10.1786 13.7374 10.1326 13.5959 10.0474 13.4784C9.96216 13.3608 9.84197 13.2732 9.70398 13.228C8.73701 12.9155 7.89417 12.3042 7.29682 11.4821C6.69947 10.66 6.37845 9.6695 6.37998 8.6533V3.1013C6.37998 2.99875 6.42072 2.9004 6.49323 2.82788C6.56575 2.75537 6.6641 2.71463 6.76665 2.71463C6.8692 2.71463 6.96755 2.75537 7.04006 2.82788C7.11258 2.9004 7.15332 2.99875 7.15332 3.1013V7.19997C7.17528 7.66877 7.37697 8.1111 7.71651 8.4351C8.05604 8.7591 8.50733 8.93987 8.97665 8.93987C9.44597 8.93987 9.89726 8.7591 10.2368 8.4351C10.5763 8.1111 10.778 7.66877 10.8 7.19997V3.1013C10.7969 3.0487 10.8046 2.99603 10.8226 2.94651C10.8406 2.89699 10.8685 2.85167 10.9047 2.81333C10.9408 2.775 10.9844 2.74446 11.0328 2.72358C11.0812 2.7027 11.1333 2.69194 11.186 2.69194C11.2387 2.69194 11.2908 2.7027 11.3392 2.72358C11.3876 2.74446 11.4312 2.775 11.4673 2.81333C11.5035 2.85167 11.5314 2.89699 11.5494 2.94651C11.5674 2.99603 11.5751 3.0487 11.572 3.1013V7.19997C11.572 7.68407 11.7643 8.14835 12.1066 8.49067C12.4489 8.83299 12.9132 9.0253 13.3973 9.0253C13.8814 9.0253 14.3457 8.83299 14.688 8.49067C15.0303 8.14835 15.2226 7.68407 15.2226 7.19997V3.1013C15.2226 2.99875 15.2634 2.9004 15.3359 2.82788C15.4084 2.75537 15.5068 2.71463 15.6093 2.71463C15.7119 2.71463 15.8102 2.75537 15.8827 2.82788C15.9552 2.9004 15.996 2.99875 15.996 3.1013L16 8.6533Z" fill="#00B730"/>
<path d="M19.788 1.3653C19.6862 1.33804 19.5795 1.33432 19.476 1.35441C19.3725 1.37451 19.2749 1.4179 19.1907 1.4813C19.1073 1.54588 19.0399 1.62877 18.9937 1.72356C18.9474 1.81835 18.9236 1.9225 18.924 2.02796V29.1413C18.9244 29.5436 19.0843 29.9293 19.3688 30.2138C19.6533 30.4983 20.039 30.6583 20.4414 30.6586H23.0187C23.4205 30.6576 23.8056 30.4973 24.0895 30.2129C24.3734 29.9285 24.533 29.5432 24.5333 29.1413V20.896C24.5333 20.8125 24.5665 20.7325 24.6255 20.6735C24.6845 20.6145 24.7646 20.5813 24.848 20.5813C25.4175 20.5806 25.9634 20.3541 26.3661 19.9514C26.7688 19.5487 26.9953 19.0028 26.996 18.4333V10.8066C26.9923 8.66122 26.2854 6.57617 24.9835 4.87092C23.6817 3.16566 21.8566 1.93424 19.788 1.3653ZM25.62 18.432C25.62 18.6371 25.5385 18.8338 25.3935 18.9788C25.2485 19.1238 25.0518 19.2053 24.8467 19.2053C24.3989 19.206 23.9696 19.3842 23.6529 19.7009C23.3363 20.0175 23.1581 20.4468 23.1574 20.8946V29.14C23.1574 29.1779 23.1424 29.2144 23.1156 29.2413C23.0889 29.2683 23.0526 29.2836 23.0147 29.284H20.4374C20.3994 29.2836 20.3631 29.2683 20.3364 29.2413C20.3097 29.2144 20.2947 29.1779 20.2947 29.14V2.97996C21.8632 3.60239 23.2091 4.68087 24.1584 6.07607C25.1077 7.47128 25.6169 9.1191 25.62 10.8066V18.432Z" fill="#00B730"/>
</svg>
