<svg width="32" height="32" viewBox="0 0 32 32" fill="none" xmlns="http://www.w3.org/2000/svg">
<path d="M26 0H5.99998C4.7623 0 3.57532 0.491665 2.70015 1.36683C1.82498 2.242 1.33331 3.42899 1.33331 4.66667V27.3333C1.33331 28.571 1.82498 29.758 2.70015 30.6332C3.57532 31.5083 4.7623 32 5.99998 32H26C27.2377 32 28.4246 31.5083 29.2998 30.6332C30.175 29.758 30.6666 28.571 30.6666 27.3333V4.66667C30.6666 3.42899 30.175 2.242 29.2998 1.36683C28.4246 0.491665 27.2377 0 26 0ZM29.3333 27.3333C29.3333 28.2174 28.9821 29.0652 28.357 29.6904C27.7319 30.3155 26.884 30.6667 26 30.6667H5.99998C5.11592 30.6667 4.26808 30.3155 3.64296 29.6904C3.01784 29.0652 2.66665 28.2174 2.66665 27.3333V4.66667C2.66665 3.78261 3.01784 2.93477 3.64296 2.30964C4.26808 1.68452 5.11592 1.33333 5.99998 1.33333H26C26.884 1.33333 27.7319 1.68452 28.357 2.30964C28.9821 2.93477 29.3333 3.78261 29.3333 4.66667V27.3333Z" fill="#55D47B"/>
<path d="M25.3333 2.66663H22C21.5429 2.6671 21.0997 2.82416 20.7443 3.11164C20.3889 3.39913 20.1427 3.79969 20.0467 4.24663C18.941 3.23661 17.4976 2.67658 16 2.67658C14.5024 2.67658 13.059 3.23661 11.9533 4.24663C11.8573 3.79969 11.6111 3.39913 11.2557 3.11164C10.9003 2.82416 10.4571 2.6671 10 2.66663H6.66667C5.95942 2.66663 5.28115 2.94758 4.78105 3.44767C4.28095 3.94777 4 4.62605 4 5.33329V26.6666C4 27.3739 4.28095 28.0521 4.78105 28.5522C5.28115 29.0523 5.95942 29.3333 6.66667 29.3333H25.3333C26.0406 29.3333 26.7189 29.0523 27.219 28.5522C27.719 28.0521 28 27.3739 28 26.6666V5.33329C28 4.62605 27.719 3.94777 27.219 3.44767C26.7189 2.94758 26.0406 2.66663 25.3333 2.66663ZM19.72 11.4733C19.5926 11.3979 19.4438 11.367 19.2969 11.3855C19.1501 11.404 19.0135 11.4708 18.9089 11.5755C18.8042 11.6802 18.7374 11.8167 18.7189 11.9636C18.7003 12.1104 18.7312 12.2593 18.8067 12.3866C18.1799 12.8597 17.4438 13.167 16.6667 13.28C16.6667 13.1031 16.5964 12.9336 16.4714 12.8086C16.3464 12.6835 16.1768 12.6133 16 12.6133C15.8232 12.6133 15.6536 12.6835 15.5286 12.8086C15.4036 12.9336 15.3333 13.1031 15.3333 13.28C14.5515 13.1692 13.8106 12.8618 13.18 12.3866C13.2554 12.2593 13.2863 12.1104 13.2678 11.9636C13.2493 11.8167 13.1825 11.6802 13.0778 11.5755C12.9731 11.4708 12.8366 11.404 12.6897 11.3855C12.5429 11.367 12.394 11.3979 12.2667 11.4733C11.7983 10.8451 11.4957 10.1092 11.3867 9.33329C11.5635 9.33329 11.733 9.26305 11.8581 9.13803C11.9831 9.01301 12.0533 8.84344 12.0533 8.66663C12.0533 8.48981 11.9831 8.32025 11.8581 8.19522C11.733 8.0702 11.5635 7.99996 11.3867 7.99996C11.4975 7.21816 11.8048 6.47727 12.28 5.84663C12.4074 5.92205 12.5562 5.95295 12.7031 5.93444C12.8499 5.91594 12.9865 5.84908 13.0911 5.74441C13.1958 5.63974 13.2626 5.50322 13.2811 5.35636C13.2997 5.2095 13.2688 5.06065 13.1933 4.93329C13.8215 4.46496 14.5574 4.16232 15.3333 4.05329C15.3333 4.2301 15.4036 4.39967 15.5286 4.5247C15.6536 4.64972 15.8232 4.71996 16 4.71996C16.1768 4.71996 16.3464 4.64972 16.4714 4.5247C16.5964 4.39967 16.6667 4.2301 16.6667 4.05329C17.4485 4.1641 18.1894 4.47147 18.82 4.94663C18.7446 5.07399 18.7137 5.22283 18.7322 5.36969C18.7507 5.51655 18.8175 5.65308 18.9222 5.75775C19.0269 5.86241 19.1634 5.92927 19.3103 5.94778C19.4571 5.96628 19.606 5.93539 19.7333 5.85996C20.2017 6.48811 20.5043 7.22406 20.6133 7.99996C20.4365 7.99996 20.267 8.0702 20.1419 8.19522C20.0169 8.32025 19.9467 8.48981 19.9467 8.66663C19.9467 8.84344 20.0169 9.01301 20.1419 9.13803C20.267 9.26305 20.4365 9.33329 20.6133 9.33329C20.5004 10.1104 20.1931 10.8465 19.72 11.4733ZM26.6667 26.6666C26.6667 27.0202 26.5262 27.3594 26.2761 27.6094C26.0261 27.8595 25.687 28 25.3333 28H6.66667C6.31304 28 5.97391 27.8595 5.72386 27.6094C5.47381 27.3594 5.33333 27.0202 5.33333 26.6666V5.33329C5.33333 4.97967 5.47381 4.64053 5.72386 4.39048C5.97391 4.14043 6.31304 3.99996 6.66667 3.99996C11.0067 3.99996 10.6667 3.54663 10.6667 5.93329C7.53333 12 15.4467 17.7133 20.2467 12.9133C21.1428 12.0144 21.7308 10.8544 21.9261 9.60016C22.1213 8.34594 21.9138 7.06211 21.3333 5.93329V4.66663C21.3333 4.48981 21.4036 4.32025 21.5286 4.19522C21.6536 4.0702 21.8232 3.99996 22 3.99996H25.3333C25.687 3.99996 26.0261 4.14043 26.2761 4.39048C26.5262 4.64053 26.6667 4.97967 26.6667 5.33329V26.6666Z" fill="#55D47B"/>
<path d="M16 7.33337C15.709 7.33634 15.427 7.43443 15.1969 7.61266C14.9669 7.79089 14.8015 8.03948 14.7259 8.3205C14.6504 8.60152 14.6689 8.89954 14.7785 9.16909C14.8882 9.43863 15.083 9.66491 15.3333 9.81337V11.3334C15.3333 11.5102 15.4035 11.6798 15.5286 11.8048C15.6536 11.9298 15.8232 12 16 12C16.1768 12 16.3463 11.9298 16.4714 11.8048C16.5964 11.6798 16.6666 11.5102 16.6666 11.3334V9.81337C16.9169 9.66491 17.1117 9.43863 17.2214 9.16909C17.3311 8.89954 17.3495 8.60152 17.274 8.3205C17.1984 8.03948 17.033 7.79089 16.803 7.61266C16.573 7.43443 16.2909 7.33634 16 7.33337Z" fill="#55D47B"/>
</svg>
