<svg width="256" height="256" viewBox="0 0 256 256" fill="none" xmlns="http://www.w3.org/2000/svg">
<path d="M128 248C61.8281 248 8 194.168 8 128C8 61.832 61.8281 8 128 8C194.172 8 248 61.832 248 128C248 194.168 194.172 248 128 248ZM128 24C70.6562 24 24 70.6523 24 128C24 185.348 70.6562 232 128 232C185.344 232 232 185.348 232 128C232 70.6523 185.344 24 128 24Z" fill="white"/>
<path d="M128 155.2C146.851 155.2 162.133 139.918 162.133 121.066C162.133 102.215 146.851 86.9331 128 86.9331C109.149 86.9331 93.8667 102.215 93.8667 121.066C93.8667 139.918 109.149 155.2 128 155.2Z" fill="white"/>
<path d="M128 240C147.209 240 165.28 235.15 181.079 226.63C177.681 200.8 155.643 180.066 128 180.066C100.357 180.066 78.3193 200.8 74.9209 226.63C90.7197 235.15 108.791 240 128 240Z" fill="white"/>
</svg>
