<svg width="32" height="32" viewBox="0 0 32 32" fill="none" xmlns="http://www.w3.org/2000/svg">
<g clip-path="url(#clip0_81_503)">
<path d="M30 15V25C30 26.3261 29.4732 27.5979 28.5355 28.5355C27.5979 29.4732 26.3261 30 25 30H7C5.67392 30 4.40215 29.4732 3.46447 28.5355C2.52678 27.5979 2 26.3261 2 25V7C2 5.67392 2.52678 4.40215 3.46447 3.46447C4.40215 2.52678 5.67392 2 7 2H17V0H7C5.14348 0 3.36301 0.737498 2.05025 2.05025C0.737498 3.36301 0 5.14348 0 7L0 25C0 26.8565 0.737498 28.637 2.05025 29.9497C3.36301 31.2625 5.14348 32 7 32H25C26.8565 32 28.637 31.2625 29.9497 29.9497C31.2625 28.637 32 26.8565 32 25V15H30Z" fill="#55D47B"/>
<path d="M7.70998 13.29L6.28998 14.71L13.29 21.71C13.4773 21.8963 13.7308 22.0008 13.995 22.0008C14.2592 22.0008 14.5126 21.8963 14.7 21.71L30.7 5.71004L29.29 4.29004L14 19.59L7.70998 13.29Z" fill="#55D47B"/>
</g>
<defs>
<clipPath id="clip0_81_503">
<rect width="32" height="32" fill="white"/>
</clipPath>
</defs>
</svg>
