<svg width="100" height="103" viewBox="0 0 100 103" fill="none" xmlns="http://www.w3.org/2000/svg">
<path d="M93.3604 43.8461C91.6789 45.7096 89.8284 47.2689 87.3466 48.5058C88.1972 49.2651 88.9527 49.8865 89.6473 50.5699C91.5216 52.4139 92.9021 54.6099 94.1336 56.9162C95.0822 58.6927 95.8508 60.5332 96.1189 62.5328C96.4305 64.8565 95.8568 67.0411 94.3621 68.8061C92.7171 70.7486 90.9517 72.6605 88.4622 73.5709C87.0524 74.0865 85.5786 74.427 83.9084 74.9117C84.6557 75.5833 85.449 76.2564 86.1962 76.9773C87.3282 78.0693 88.4275 79.1953 89.5422 80.3054C89.8611 80.623 90.1577 80.9711 90.5116 81.2444C91.9187 82.3312 92.4036 84.0331 93.3438 85.4299C94.1419 86.6155 94.6841 87.8864 95.0865 89.2837C95.5752 90.9808 93.9212 93.1531 92.4652 93.5345C90.7024 93.9962 89.038 94.8302 87.278 95.307C85.3731 95.8229 83.4115 96.1368 81.4663 96.4937C79.7598 96.8069 78.0423 97.0614 76.3286 97.3352C74.5859 97.6136 72.8445 97.9017 71.0978 98.1532C68.67 98.5029 66.2404 98.8431 63.8063 99.1448C62.8232 99.2666 61.8248 99.2583 60.8358 99.3397C57.7375 99.5946 54.6309 99.7997 51.5935 100.522C49.9893 100.903 48.7547 100.609 48.0381 99.205C46.9607 97.0934 45.9145 94.9227 45.2339 92.663C44.3961 89.8811 43.8054 87.0034 43.3737 84.1272C42.9998 81.6358 42.9829 79.0895 42.8421 76.5656C42.8139 76.0594 42.9382 75.5447 42.9962 74.9958C39.7225 76.2586 36.5928 76.2105 33.5981 74.3658C30.7354 72.6024 28.7524 70.1458 27.8129 66.9775C26.6489 67.2099 25.5087 67.4912 24.3519 67.6565C22.3015 67.9496 20.2465 67.8583 18.2595 67.2758C16.119 66.6484 14.5251 65.1777 13.0516 63.5755C11.4177 61.799 10.5661 59.6292 10.2238 57.304C9.99327 55.7382 10.1926 54.147 10.6215 52.5769C11.1054 50.8053 11.9243 49.2675 13.1827 47.8874C10.9139 46.0002 9.55715 43.5395 8.95386 40.6791C8.35138 37.8225 8.16163 34.9419 8.46399 32.0109C8.69086 29.8116 9.07861 27.6629 9.87057 25.6155C10.3796 24.2995 11.0683 23.0407 11.7853 21.8202C12.9294 19.8726 14.5823 18.3555 16.317 16.9554C17.7188 15.8239 19.4117 15.2063 21.1242 14.703C24.5398 13.6992 28.6031 14.6228 31.2799 16.9777C31.6914 15.9652 31.987 14.894 32.5342 13.9723C33.3624 12.5772 34.2272 11.1557 35.3291 9.98284C36.792 8.42567 38.3825 6.92971 40.1339 5.71947C41.7208 4.62282 43.5622 3.86302 45.3534 3.10037C48.3374 1.82987 51.5174 1.59234 54.6952 1.87188C57.8916 2.15306 60.82 3.27485 63.462 5.18077C65.8216 6.88297 67.8379 8.89997 69.4845 11.2697C70.601 12.8767 71.1924 14.743 71.6667 16.6354C71.7252 16.8687 71.7994 17.0981 71.8885 17.4057C73.5722 16.2132 75.4531 15.5955 77.3836 15.261C80.7266 14.6817 84.0702 14.7527 87.0038 16.7191C89.0535 18.0929 90.6947 19.9443 91.802 22.1852C92.7953 24.1957 93.8744 26.1879 94.6089 28.2951C95.2822 30.2267 95.7417 32.2428 95.8757 34.3402C96.0355 36.8434 95.8881 39.2517 94.8129 41.5321C94.4357 42.3321 93.8738 43.0451 93.3604 43.8461ZM67.4075 9.84877C64.8781 6.85124 61.8324 4.56153 58.0236 3.52089C51.1015 1.62961 44.8318 3.27113 39.1672 7.43976C35.9165 9.832 33.5071 12.9058 32.4464 16.8907C32.2754 17.5333 32.1926 18.1993 32.0591 18.9065C29.494 16.2202 26.4068 15.0345 22.8287 15.4683C18.2998 16.0172 14.8108 18.3547 12.5207 22.284C9.21837 27.9499 8.67406 34.0658 9.94581 40.4016C10.3877 42.6032 11.1768 44.6752 12.7667 46.3344C13.2708 46.8605 13.8858 47.2802 14.4503 47.7488C11.6592 50.8069 10.5906 54.8012 11.5254 58.638C12.6506 63.2565 16.1329 66.315 20.8502 66.7094C23.5295 66.9335 26.1519 66.5767 28.683 65.4518C29.139 69.1503 30.8879 71.9915 34.1818 73.6953C37.4959 75.4095 40.8511 75.1618 44.2297 73.3783C43.7158 76.7284 43.7012 79.9481 44.1809 83.1466C44.8968 87.9204 45.6814 92.6871 48.0459 97.0075C48.1503 97.1983 48.2309 97.4191 48.2559 97.6337C48.4507 99.3042 49.4868 99.9554 51.4883 99.5871C53.8312 99.1559 56.1894 98.7785 58.5561 98.5129C61.5065 98.1817 64.4871 98.1001 67.4278 97.7086C71.4411 97.1743 75.4239 96.4153 79.4293 95.8163C83.0547 95.2742 86.6674 94.7087 90.0934 93.3247C90.735 93.0655 91.3651 92.7526 92.0307 92.5828C93.7711 92.1388 94.456 91.0492 94.0568 89.2703C93.4195 86.4309 91.6197 84.2134 89.8613 82.0804C87.6259 79.3686 85.0347 76.9503 82.5982 74.4041C82.4173 74.215 82.2473 74.0154 81.9494 73.6841C82.5091 73.6841 82.8882 73.6985 83.2659 73.6817C85.4592 73.5842 87.5595 73.0876 89.4807 72.0178C93.3505 69.8631 96.9751 65.7348 94.2052 59.344C92.3067 54.9637 89.8974 50.9625 85.8696 48.2939C87.1556 47.5341 88.5019 46.814 89.7699 45.9755C93.7032 43.3745 95.1844 39.5705 94.8896 35.0096C94.5562 29.8528 92.7216 25.185 89.9746 20.8569C88.5692 18.6427 86.6435 17.0435 84.0535 16.4346C79.3993 15.3405 75.0856 16.0965 71.2143 18.9988C71.1393 19.055 71.0379 19.076 70.9042 19.1321C70.6851 15.6771 69.5681 12.6266 67.4075 9.84877Z" fill="#FAF3F3"/>
<path d="M67.4448 9.89553C69.5681 12.6266 70.6851 15.6771 70.9042 19.1322C71.0379 19.076 71.1393 19.055 71.2143 18.9988C75.0856 16.0965 79.3993 15.3406 84.0535 16.4347C86.6435 17.0436 88.5692 18.6427 89.9746 20.857C92.7216 25.185 94.5562 29.8528 94.8896 35.0096C95.1844 39.5705 93.7032 43.3745 89.7699 45.9756C88.5019 46.8141 87.1556 47.5342 85.8696 48.294C89.8974 50.9625 92.3067 54.9637 94.2052 59.3441C96.9751 65.7348 93.3505 69.8631 89.4807 72.0179C87.5595 73.0876 85.4592 73.5842 83.2659 73.6817C82.8882 73.6985 82.5091 73.6841 81.9494 73.6841C82.2473 74.0154 82.4173 74.215 82.5982 74.4042C85.0347 76.9503 87.6259 79.3687 89.8613 82.0804C91.6197 84.2134 93.4195 86.4309 94.0568 89.2704C94.456 91.0493 93.7711 92.1389 92.0307 92.5828C91.3651 92.7526 90.735 93.0655 90.0934 93.3248C86.6674 94.7087 83.0547 95.2743 79.4293 95.8164C75.4239 96.4153 71.4411 97.1744 67.4278 97.7086C64.4871 98.1001 61.5065 98.1818 58.5561 98.5129C56.1894 98.7786 53.8312 99.156 51.4883 99.5871C49.4868 99.9554 48.4507 99.3042 48.2559 97.6337C48.2309 97.4192 48.1503 97.1984 48.0459 97.0076C45.6814 92.6872 44.8968 87.9205 44.1809 83.1467C43.7012 79.9482 43.7158 76.7285 44.2297 73.3784C40.8511 75.1619 37.4959 75.4096 34.1818 73.6953C30.8879 71.9915 29.139 69.1503 28.683 65.4518C26.1519 66.5768 23.5295 66.9335 20.8502 66.7095C16.1329 66.3151 12.6506 63.2566 11.5254 58.638C10.5906 54.8013 11.6592 50.807 14.4503 47.7489C13.8858 47.2803 13.2708 46.8605 12.7667 46.3344C11.1768 44.6753 10.3877 42.6032 9.94581 40.4017C8.67406 34.0659 9.21837 27.95 12.5207 22.284C14.8108 18.3548 18.2998 16.0173 22.8287 15.4683C26.4068 15.0346 29.494 16.2202 32.0591 18.9065C32.1926 18.1993 32.2754 17.5333 32.4464 16.8907C33.5071 12.9058 35.9165 9.83206 39.1672 7.43981C44.8318 3.27118 51.1015 1.62967 58.0236 3.52094C61.8324 4.56158 64.8781 6.85129 67.4448 9.89553ZM84.3785 79.2063C84.3785 79.2063 84.3182 79.1705 84.2809 79.0664C83.3134 78.041 82.346 77.0157 81.3277 75.8863C78.4873 72.7193 75.8561 69.4007 73.8697 65.6132C73.7167 65.3216 73.5241 65.0509 73.3469 64.6583C73.1934 64.3573 73.0399 64.0562 72.8604 63.6428C72.3172 62.2601 71.774 60.8774 71.2188 59.4642C69.798 62.1175 67.5544 63.7755 64.7014 64.5078C59.69 65.794 55.0341 64.7407 50.6845 62.0728C50.3684 61.8789 50.066 61.6626 49.6773 61.4034C49.6441 61.723 49.6179 61.8854 49.6118 62.0486C49.4979 65.0717 48.8886 67.9852 47.0457 70.4311C46.1857 71.5726 45.8912 72.7039 45.975 74.0382C45.9907 74.2872 45.9782 74.5378 45.9871 74.7874C46.1737 80.0076 47.2585 85.064 48.7759 90.0408C49.4835 92.3614 50.1988 94.6798 50.9269 97.0521C51.0407 97.038 51.2295 97.0145 51.4183 96.9909C54.5504 96.5987 57.6786 96.1717 60.8156 95.8248C63.5147 95.5262 66.2298 95.3708 68.927 95.0585C72.5607 94.6377 76.1748 94.0299 79.8145 93.6826C83.4001 93.3403 86.8971 92.6205 90.2775 91.45C92.6662 90.6228 92.3206 91.072 91.6089 88.5334C91.4196 88.1308 91.2303 87.7282 91.0265 87.2203C90.9674 87.1371 90.9082 87.0538 90.8507 86.9884C90.8507 86.9884 90.8672 86.9818 90.8355 86.8714C88.6952 84.3364 86.5549 81.8015 84.4098 79.2712C84.4098 79.2712 84.4034 79.2719 84.3785 79.2063ZM92.8551 28.7373C92.8436 28.7111 92.8321 28.6849 92.7968 28.5458C91.7787 26.147 89.972 24.3315 88.3181 22.3892C85.9533 19.612 82.9415 18.4872 79.3855 18.6621C77.8658 18.7369 76.3518 18.928 74.8358 19.0727C73.4899 19.2011 72.3338 19.7474 71.3497 20.671C71.2609 20.7543 71.1339 20.7968 70.9412 20.9052C70.6738 19.951 70.4239 19.0798 70.1857 18.2054C69.5247 15.7778 68.4216 13.5708 66.5896 11.8363C62.1019 7.58702 56.6794 5.8206 50.4065 6.00812C47.4762 6.21185 44.7677 7.15157 42.226 8.56935C38.2134 10.8077 35.167 13.9043 33.7877 18.4072C33.5861 19.0653 33.5012 19.7587 33.3396 20.4304C33.3279 20.479 33.1304 20.4829 32.9682 20.4038C32.5401 20.0174 32.0928 19.65 31.6867 19.2417C28.3065 15.8434 22.7898 15.7973 18.8344 18.5024C18.8344 18.5024 18.8363 18.4928 18.7512 18.5165C18.71 18.5571 18.6687 18.5978 18.5168 18.6648C15.6312 20.52 13.8775 23.2396 12.7346 26.3843C11.1776 30.6681 10.7982 35.0845 11.5353 39.5768C12.0078 42.4565 13.0441 45.0869 15.2994 47.0919C15.449 47.225 15.5535 47.4088 15.563 47.4209C15.0544 47.9855 14.5353 48.4072 14.2115 48.9462C12.18 52.3275 12.1241 55.8232 13.7584 59.3678C15.402 62.9327 18.1918 64.8094 22.1318 64.6542C24.3835 64.5655 26.6228 64.1626 28.9818 63.8878C29.0099 63.9893 29.1037 64.3001 29.1814 64.6148C29.55 66.1069 30.0738 67.5118 31.0462 68.7481C33.9636 72.4574 39.6277 73.3958 43.296 70.6796C45.3024 69.194 46.3163 67.0486 47.0113 64.7096C47.562 62.8561 48.1946 61.027 48.8266 59.0767C49.9645 59.618 50.9436 60.1293 51.9575 60.5583C56.8275 62.6191 61.7589 63.3196 66.8049 61.1593C68.2991 60.5196 69.5531 59.5933 70.3824 58.172C70.6553 57.7042 70.8436 57.1871 71.1403 56.5406C71.3646 56.9494 71.531 57.2229 71.6693 57.5099C72.4646 59.1602 73.2362 60.8222 74.0476 62.4645C75.8014 66.0141 77.967 69.2913 80.508 72.3325C81.0982 73.0389 81.7499 73.0827 82.5069 72.9732C86.3178 72.422 89.3847 70.5691 91.7646 67.5752C92.1689 67.0665 92.4025 66.4221 92.7909 65.7509C92.8926 64.8858 92.9943 64.0208 93.0909 63.0078C92.8684 62.0988 92.7688 61.1356 92.3971 60.2923C91.6723 58.6479 90.9292 56.9824 89.9457 55.4889C88.8267 53.7895 87.4366 52.2685 86.1192 50.5675C85.3052 49.6791 84.311 49.0761 83.2746 48.6465C84.9996 47.6616 86.7878 46.771 88.4355 45.6703C91.1329 43.8684 92.9474 41.3848 93.6761 38.0296C93.7565 36.0788 93.9764 34.1199 93.8642 32.1802C93.7984 31.0442 93.2032 29.9388 92.8451 28.8341C92.8451 28.8341 92.8545 28.8231 92.8551 28.7373Z" fill="#480505"/>
<path d="M50.56 6.02212C56.6794 5.82061 62.1019 7.58704 66.5896 11.8363C68.4216 13.5709 69.5247 15.7778 70.1857 18.2054C70.4239 19.0798 70.6738 19.951 70.9412 20.9052C71.1339 20.7968 71.2609 20.7543 71.3497 20.671C72.3338 19.7475 73.4899 19.2011 74.8358 19.0727C76.3518 18.928 77.8658 18.7369 79.3854 18.6621C82.9415 18.4872 85.9533 19.612 88.3181 22.3892C89.972 24.3315 91.7787 26.147 92.783 28.6218C92.7976 28.7396 92.8261 28.7814 92.8545 28.8231C92.8545 28.8231 92.8451 28.8341 92.8409 28.9028C92.9447 30.3157 93.1 31.6582 93.1498 33.0047C93.2318 35.2236 92.9193 37.3578 91.5429 39.2117C91.4199 39.3774 91.39 39.6124 91.2906 39.8632C90.9545 40.1077 90.6446 40.3043 90.2862 40.4754C90.2518 40.2201 90.1942 39.9526 90.292 39.7668C90.8206 38.7621 91.4783 37.8162 91.9207 36.7773C92.6241 35.1259 93.0006 33.4142 92.3058 31.6247C91.5217 29.6051 90.3594 27.8234 88.8482 26.301C87.8611 25.3066 86.77 24.385 85.6114 23.5989C84.1812 22.6285 82.587 22.9205 80.9981 23.3522C81.2517 23.7028 81.5514 23.9274 81.8359 24.1699C83.4256 25.5251 84.7063 27.0856 85.2011 29.181C85.8141 31.7769 85.5192 34.3027 84.528 36.7376C83.644 38.9091 82.3868 40.8055 80.1488 41.8462C78.7404 42.5011 77.3408 43.1755 75.9471 43.8611C74.8297 44.4108 74.0322 45.216 73.7403 46.496C73.296 48.4438 71.8887 49.6544 70.2034 50.4314C67.8343 51.5236 65.2037 51.4831 62.7621 51.0313C59.6808 50.4611 56.6993 49.3374 53.6914 48.3994C53.223 48.2533 52.9179 48.2477 52.4803 48.4876C48.6559 50.584 44.9764 50.3345 41.4618 47.7296C41.2771 47.5927 41.0146 47.5419 40.7795 47.4949C38.2336 46.9857 36.7359 45.3908 35.9881 42.9655C35.3809 40.9963 35.7714 39.0831 36.1804 37.1554C36.2322 36.9115 36.1706 36.5783 36.0325 36.3736C35.7904 36.015 35.4294 35.7394 35.1511 35.402C33.0405 32.8441 33.2429 29.1897 35.5413 26.8719C37.0721 25.3282 38.9508 24.3235 40.8808 23.4032C41.4092 23.1512 41.6251 22.8546 41.6964 22.2283C41.9514 19.989 42.4557 17.8098 43.9098 15.9835C44.6637 15.0365 45.5824 14.178 46.1413 13.1277C47.2429 11.0575 48.4416 9.08949 50.1255 7.43728C50.3185 7.248 50.3732 6.91786 50.5002 6.59013C50.5255 6.35886 50.5427 6.19049 50.56 6.02212ZM60.0968 18.8523C60.7806 19.0153 61.4646 19.3127 62.1484 19.3123C63.4276 19.3115 64.7686 18.2016 65.1302 17.006C65.5373 15.6602 65.1149 14.558 64.0864 13.6564C63.1751 12.8575 61.6788 12.7475 60.4904 13.3232C58.7644 14.1593 57.6843 16.8013 60.0968 18.8523ZM58.3329 21.0941C58.7375 20.6247 58.9519 20.1112 58.6539 19.5059C58.3068 18.8008 57.441 18.5356 56.7487 18.9088C56.0623 19.2789 55.7991 20.1688 56.1788 20.8352C56.5965 21.5683 57.4173 21.7074 58.3329 21.0941Z" fill="#7AAB01"/>
<path d="M50.4832 6.01514C50.5428 6.1905 50.5255 6.35887 50.4403 6.60086C48.9377 7.39594 47.4045 7.97341 46.0921 8.873C44.1792 10.1842 42.3377 11.6322 40.6316 13.2021C39.3292 14.4007 37.9525 15.6124 37.4577 17.4821C37.0332 19.0861 36.4765 20.6562 35.946 22.2305C35.5835 23.3063 34.9555 23.4869 33.9705 22.8748C33.4322 22.5403 32.9048 22.1615 32.3217 21.9312C30.2597 21.1168 28.131 20.9608 25.9674 21.4709C25.335 21.62 24.6185 21.6775 24.1051 22.022C21.4283 23.8184 20.0759 27.1044 20.7883 30.3251C21.5325 33.6894 23.5942 36.1679 26.6324 37.8253C27.654 38.3826 28.6707 38.9587 29.6312 39.612C29.9574 39.8338 30.1044 40.319 30.3333 40.6839C30.0445 40.8563 29.7694 41.0591 29.4648 41.1963C27.2847 42.1781 25.5149 44.0249 26.014 47.0665C26.8349 52.07 30.8283 52.8726 34.3762 50.7973C34.7745 50.5643 35.0528 50.1272 35.4498 49.8902C35.6628 49.763 36.0326 49.7967 36.2857 49.8868C36.3911 49.9244 36.4343 50.3055 36.4078 50.5182C36.1086 52.9232 36.7855 55.033 38.4095 56.7984C40.4111 58.9742 42.9981 59.5783 45.8396 59.316C46.1604 59.2864 46.5007 59.0393 46.757 58.8094C48.0761 57.626 48.8082 56.0709 49.414 54.4489C49.4843 54.2608 49.3769 54.0123 49.4234 53.8081C49.5216 53.3769 49.5432 52.7612 49.8254 52.582C50.1637 52.3671 50.8026 52.3879 51.1992 52.562C51.7111 52.7868 52.126 53.2489 52.5581 53.6362C54.4501 55.3317 56.4076 56.9788 58.9837 57.4391C61.0724 57.8123 63.2041 57.9898 65.325 58.115C66.1503 58.1637 67.0424 57.947 67.8262 57.6472C69.3275 57.073 70.5545 56.0879 71.5068 54.7648C72.0608 53.9952 72.2469 54.0691 72.7964 54.8892C73.8904 56.5218 74.8679 58.2785 76.2004 59.6952C78.8216 62.482 82.2711 63.6957 86.0208 63.9704C87.6127 64.0871 89.2283 63.8817 90.8564 63.878C91.1515 64.8961 91.7305 65.5633 92.7149 65.8405C92.4025 66.4222 92.1689 67.0666 91.7646 67.5752C89.3847 70.5691 86.3178 72.422 82.5069 72.9732C81.7499 73.0827 81.0982 73.0389 80.508 72.3325C77.967 69.2913 75.8014 66.0141 74.0476 62.4646C73.2362 60.8223 72.4646 59.1603 71.6693 57.5099C71.531 57.2229 71.3646 56.9494 71.1403 56.5406C70.8436 57.1871 70.6553 57.7043 70.3824 58.172C69.5531 59.5933 68.2991 60.5196 66.805 61.1593C61.7589 63.3196 56.8275 62.6191 51.9576 60.5584C50.9437 60.1293 49.9645 59.618 48.8266 59.0768C48.1946 61.027 47.562 62.8561 47.0113 64.7096C46.3163 67.0486 45.3024 69.194 43.296 70.6796C39.6277 73.3958 33.9636 72.4574 31.0462 68.7481C30.0738 67.5118 29.55 66.1069 29.1814 64.6149C29.1037 64.3001 29.0099 63.9894 28.9818 63.8878C26.6228 64.1626 24.3835 64.5655 22.1318 64.6542C18.1918 64.8094 15.402 62.9327 13.7584 59.3678C12.1241 55.8232 12.18 52.3275 14.2115 48.9462C14.5353 48.4072 15.0544 47.9855 15.563 47.421C15.5535 47.4088 15.449 47.225 15.2994 47.092C13.0441 45.0869 12.0078 42.4565 11.5353 39.5768C10.7982 35.0845 11.1776 30.6681 12.7346 26.3844C13.8775 23.2397 15.6312 20.52 18.6166 18.6433C18.7564 18.5788 18.7964 18.5358 18.8364 18.4929C18.8364 18.4929 18.8344 18.5024 18.908 18.5044C19.6737 18.4876 20.3711 18.5176 21.0566 18.441C23.1944 18.202 25.3287 18.2359 27.3724 18.9006C28.6485 19.3156 29.8339 20.0167 31.0467 20.6164C31.7394 20.959 32.3933 21.1246 33.0194 20.5076C33.1304 20.4829 33.3279 20.479 33.3396 20.4304C33.5012 19.7588 33.5861 19.0653 33.7877 18.4072C35.1671 13.9043 38.2134 10.8077 42.2261 8.56937C44.7677 7.1516 47.4762 6.21188 50.4832 6.01514Z" fill="#018700"/>
<path d="M90.8331 63.8226C89.2283 63.8816 87.6127 64.087 86.0208 63.9703C82.2711 63.6956 78.8216 62.4819 76.2004 59.6951C74.8679 58.2784 73.8903 56.5217 72.7964 54.8892C72.2469 54.0691 72.0608 53.9951 71.5068 54.7648C70.5545 56.0879 69.3275 57.0729 67.8262 57.6471C67.0424 57.9469 66.1503 58.1637 65.325 58.115C63.2041 57.9898 61.0724 57.8122 58.9837 57.439C56.4076 56.9788 54.4501 55.3316 52.5581 53.6361C52.126 53.2488 51.7111 52.7868 51.1992 52.5619C50.8026 52.3878 50.1637 52.3671 49.8254 52.5819C49.5432 52.7611 49.5216 53.3768 49.4234 53.8081C49.3769 54.0123 49.4843 54.2607 49.414 54.4488C48.8082 56.0708 48.0761 57.626 46.757 58.8093C46.5007 59.0392 46.1604 59.2863 45.8396 59.3159C42.9981 59.5782 40.4111 58.9742 38.4095 56.7983C36.7855 55.0329 36.1086 52.9231 36.4078 50.5181C36.4343 50.3054 36.3911 49.9243 36.2857 49.8868C36.0326 49.7966 35.6628 49.7629 35.4497 49.8902C35.0528 50.1271 34.7745 50.5642 34.3762 50.7972C30.8283 52.8725 26.8349 52.0699 26.014 47.0664C25.5149 44.0249 27.2847 42.1781 29.4648 41.1962C29.7694 41.059 30.0445 40.8562 30.3333 40.6838C30.1044 40.319 29.9574 39.8338 29.6312 39.6119C28.6707 38.9587 27.654 38.3825 26.6324 37.8253C23.5942 36.1679 21.5325 33.6893 20.7883 30.325C20.0759 27.1044 21.4283 23.8183 24.1051 22.022C24.6185 21.6774 25.335 21.6199 25.9674 21.4708C28.131 20.9608 30.2597 21.1167 32.3217 21.9311C32.9047 22.1614 33.4322 22.5403 33.9705 22.8747C34.9555 23.4868 35.5835 23.3062 35.946 22.2304C36.4764 20.6562 37.0332 19.086 37.4577 17.4821C37.9525 15.6123 39.3292 14.4006 40.6316 13.202C42.3377 11.6321 44.1791 10.1841 46.0921 8.87293C47.4045 7.97334 48.9377 7.39587 50.4321 6.6637C50.3732 6.91781 50.3185 7.24795 50.1255 7.43723C48.4416 9.08943 47.2429 11.0575 46.1413 13.1277C45.5824 14.178 44.6637 15.0365 43.9098 15.9834C42.4557 17.8098 41.9514 19.9889 41.6964 22.2283C41.6251 22.8546 41.4092 23.1512 40.8808 23.4032C38.9508 24.3234 37.0721 25.3281 35.5413 26.8718C33.2429 29.1897 33.0405 32.844 35.1511 35.402C35.4294 35.7394 35.7904 36.0149 36.0325 36.3735C36.1706 36.5782 36.2322 36.9114 36.1804 37.1553C35.7714 39.083 35.3809 40.9963 35.9881 42.9655C36.7359 45.3908 38.2336 46.9856 40.7795 47.4949C41.0146 47.5419 41.2771 47.5927 41.4618 47.7296C44.9764 50.3345 48.6559 50.584 52.4803 48.4875C52.9179 48.2476 53.223 48.2533 53.6914 48.3993C56.6993 49.3373 59.6808 50.461 62.7621 51.0312C65.2037 51.483 67.8343 51.5236 70.2034 50.4313C71.8887 49.6544 73.296 48.4437 73.7403 46.4959C74.0322 45.216 74.8297 44.4107 75.9471 43.861C77.3408 43.1754 78.7404 42.5011 80.1488 41.8462C82.3868 40.8055 83.644 38.9091 84.528 36.7375C85.5192 34.3027 85.8141 31.7768 85.2011 29.181C84.7063 27.0855 83.4256 25.5251 81.8359 24.1699C81.5514 23.9274 81.2517 23.7027 80.9981 23.3522C82.587 22.9204 84.1812 22.6285 85.6114 23.5989C86.77 24.385 87.8611 25.3065 88.8482 26.301C90.3594 27.8234 91.5217 29.605 92.3058 31.6246C93.0007 33.4142 92.6241 35.1258 91.9207 36.7773C91.4783 37.8161 90.8206 38.762 90.292 39.7667C90.1942 39.9525 90.2518 40.2201 90.2609 40.5252C87.8005 42.8604 84.8675 44.2992 81.707 45.3416C81.1996 45.509 80.6833 45.7854 80.2951 46.1452C79.7388 46.6608 79.9479 47.6867 80.6501 47.9532C81.4676 48.2633 82.328 48.4601 83.1698 48.706C84.311 49.0761 85.3052 49.679 86.0774 50.6171C85.4553 50.5001 84.8838 50.2424 84.293 50.1857C83.0456 50.0661 82.6389 50.736 83.1963 51.8894C83.2919 52.087 83.4004 52.289 83.5459 52.45C84.2503 53.2295 84.9788 53.9873 85.6817 54.7682C88.024 57.3705 89.8304 60.2854 90.833 63.704C90.8327 63.7436 90.8331 63.8226 90.8331 63.8226ZM42.7607 52.6513C43.1534 52.1083 43.118 51.5518 42.5432 51.2468C42.235 51.0833 41.6174 51.098 41.3893 51.3062C41.1751 51.5016 41.1368 52.1372 41.2933 52.437C41.5677 52.9626 42.0871 53.1986 42.7607 52.6513Z" fill="#609F00"/>
<path d="M72.8864 63.7551C73.0399 64.0562 73.1934 64.3572 73.3475 64.7717C73.3425 64.9231 73.3369 64.961 73.2668 65.0081C73.0794 65.2376 72.852 65.459 72.8545 65.6779C72.8605 66.1965 72.9978 66.7123 73.0367 67.2326C73.0551 67.4787 73.0593 67.8186 72.9158 67.9682C72.2267 68.6862 71.5102 69.3828 70.7571 70.0334C68.7551 71.7631 68.7154 72.5285 69.3791 74.6608C69.7827 74.761 70.1498 74.8522 70.5168 74.9433C70.5032 75.0343 70.4895 75.1252 70.4759 75.2162C70.2301 75.2892 69.9844 75.3623 69.6135 75.4726C70.2385 76.5801 70.836 77.6268 71.4222 78.6797C73.097 81.6875 75.3405 84.2387 77.8503 86.5575C78.2862 86.9602 78.9767 87.2746 79.5616 87.2958C81.9357 87.3816 84.3187 87.4441 86.6708 86.9341C86.939 86.8759 87.3317 86.9816 87.5461 87.1579C88.3909 87.8528 89.1876 88.6063 89.9629 89.3818C88.3785 90.1344 86.7721 90.5531 85.0715 90.7638C83.2667 90.9874 81.505 91.5428 79.703 91.8078C75.9889 92.354 72.2622 92.8178 68.5368 93.2843C67.2813 93.4416 66.0064 93.64 64.7544 93.5698C63.668 93.509 62.5884 93.1373 61.5328 92.8149C61.1571 92.7001 60.7068 92.3966 60.5525 92.0594C59.4932 89.7442 58.4574 87.4157 57.5064 85.0542C56.816 83.3399 56.2673 81.5685 55.6523 79.7487C55.772 78.5657 55.4616 77.5782 54.8035 76.643C54.7519 76.5652 54.7075 76.5305 54.6657 76.4967C54.6684 76.4975 54.6698 76.5029 54.6741 76.4342C54.3775 75.1004 54.0167 73.8457 53.7924 72.5671C53.5711 71.3048 53.4879 70.0182 53.3261 68.583C53.9918 68.7464 54.4907 68.8696 54.9899 68.9912C57.0709 69.4982 59.1728 69.3933 61.2689 69.1542C63.6409 68.8836 65.9638 68.4301 68.1463 67.3702C69.9814 66.4791 71.415 65.1017 72.8864 63.7551ZM57.3356 76.6407C57.4793 76.9181 57.623 77.1954 57.7667 77.4727C57.9437 77.3189 58.1207 77.165 58.2977 77.0112C58.0785 76.8319 57.8594 76.6525 57.674 76.3526C57.6877 76.0979 57.7014 75.8431 57.7151 75.5884C57.5062 75.5808 57.2256 75.4826 57.1006 75.5813C56.5456 76.0198 57.0374 76.2498 57.3356 76.6407ZM67.2401 77.9991C66.3701 77.3978 65.5032 77.4588 64.8773 78.1652C64.2646 78.8569 64.2192 79.7823 64.8965 80.4816C65.0672 79.9857 65.2166 79.5634 65.3582 79.1384C65.6701 78.2024 66.368 78.0519 67.0245 78.7746C67.2645 79.0387 67.5255 79.2838 67.7769 79.5376C67.8832 79.4582 67.9895 79.3789 68.0958 79.2995C67.84 78.8942 67.5841 78.4889 67.2401 77.9991ZM58.0018 73.0653C57.9881 72.3583 57.6191 71.8941 56.9299 72.0518C56.5751 72.1329 56.0944 72.6263 56.0782 72.9536C56.062 73.2799 56.4895 73.7916 56.8402 73.9357C57.4131 74.1712 57.8218 73.7818 58.0018 73.0653Z" fill="#BBD74D"/>
<path d="M72.8734 63.699C71.415 65.1018 69.9814 66.4792 68.1464 67.3703C65.9638 68.4301 63.6409 68.8836 61.2689 69.1543C59.1728 69.3934 57.0709 69.4983 54.9899 68.9913C54.4907 68.8696 53.9918 68.7465 53.3261 68.5831C53.4879 70.0183 53.5711 71.3048 53.7925 72.5672C54.0167 73.8458 54.3775 75.1005 54.62 76.4158C53.9089 76.1188 53.2912 75.652 52.5964 75.4485C50.9462 74.9652 49.2192 75.6413 48.2735 77.0073C47.5012 78.123 47.2981 79.9853 48.5217 81.3132C48.6285 81.4292 48.6175 81.6536 48.6162 81.826C48.521 81.8556 48.4709 81.8869 48.3627 81.9303C47.2037 82.3668 47.327 83.5688 47.9547 84.01C48.9688 84.7228 50.0782 85.2288 51.3526 85.1607C52.8429 85.0811 53.891 83.9451 53.8407 82.5555C53.8351 82.3998 53.9585 82.2245 54.0571 82.0827C54.5838 81.3251 55.1216 80.5752 55.6555 79.8227C56.2673 81.5686 56.816 83.34 57.5064 85.0543C58.4574 87.4157 59.4932 89.7443 60.5526 92.0594C60.7069 92.3967 61.1571 92.7002 61.5328 92.815C62.5885 93.1374 63.668 93.509 64.7544 93.5699C66.0065 93.6401 67.2813 93.4416 68.5369 93.2844C72.2623 92.8178 75.9889 92.354 79.7031 91.8079C81.505 91.5429 83.2667 90.9875 85.0715 90.7639C86.7721 90.5532 88.3785 90.1344 90.0224 89.3746C90.6259 89.0965 91.1307 88.8693 91.6355 88.6421C92.3205 91.072 92.6662 90.6228 90.2775 91.45C86.8971 92.6205 83.4001 93.3403 79.8145 93.6826C76.1748 94.0299 72.5607 94.6377 68.927 95.0585C66.2298 95.3708 63.5147 95.5262 60.8156 95.8247C57.6786 96.1717 54.5503 96.5987 51.4183 96.9909C51.2295 97.0145 51.0407 97.0379 50.9269 97.0521C50.1988 94.6798 49.4835 92.3614 48.7759 90.0408C47.2585 85.064 46.1737 80.0076 45.9871 74.7874C45.9782 74.5378 45.9907 74.2872 45.975 74.0381C45.8912 72.7039 46.1857 71.5726 47.0457 70.4311C48.8886 67.9852 49.4979 65.0717 49.6118 62.0486C49.6179 61.8854 49.6441 61.723 49.6773 61.4034C50.066 61.6626 50.3684 61.8789 50.6845 62.0728C55.0341 64.7407 59.69 65.794 64.7014 64.5077C67.5544 63.7755 69.798 62.1175 71.2188 59.4642C71.774 60.8774 72.3172 62.2601 72.8734 63.699Z" fill="#6DC124"/>
<path d="M91.6222 88.5878C91.1307 88.8693 90.6259 89.0965 90.0616 89.3309C89.1876 88.6064 88.3909 87.8529 87.5461 87.158C87.3317 86.9816 86.939 86.876 86.6708 86.9341C84.3187 87.4442 81.9358 87.3817 79.5616 87.2959C78.9767 87.2747 78.2862 86.9602 77.8503 86.5575C75.3405 84.2388 73.097 81.6876 71.4222 78.6798C70.836 77.6269 70.2385 76.5802 69.6135 75.4726C69.9844 75.3624 70.2301 75.2893 70.4759 75.2163C70.4895 75.1253 70.5032 75.0343 70.5169 74.9434C70.1498 74.8523 69.7827 74.7611 69.3791 74.6609C68.7154 72.5286 68.7551 71.7631 70.7571 70.0335C71.5102 69.3829 72.2267 68.6862 72.9158 67.9682C73.0593 67.8187 73.0552 67.4787 73.0367 67.2327C72.9978 66.7124 72.8605 66.1966 72.8545 65.6779C72.852 65.4591 73.0794 65.2376 73.2679 65.0762C73.7171 67.3038 74.8414 69.1617 75.8293 71.0767C76.106 71.6129 76.3855 72.1477 76.594 72.6853C76.2789 72.6457 76.035 72.5838 75.7878 72.5654C74.5405 72.4723 73.4811 72.8633 72.7435 73.8973C72.0255 74.9039 71.9689 76.0053 72.4818 77.1241C73.0179 78.2936 73.9534 78.9463 75.1998 79.2126C75.4628 79.2688 75.7893 79.4104 75.9249 79.6182C76.721 80.838 78.517 81.0897 79.5627 80.0558C80.0672 79.5569 80.4988 78.9842 80.9928 78.4968C81.0541 78.5937 81.0791 78.6463 81.119 78.6827C83.66 81.0079 86.1833 83.353 88.758 85.6403C89.373 86.1866 90.1596 86.5398 90.8672 86.9818C90.8672 86.9818 90.8507 86.9883 90.8513 87.0349C90.9149 87.1629 90.9779 87.2443 91.0409 87.3256C91.2302 87.7282 91.4196 88.1308 91.6222 88.5878ZM84.419 82.4577C83.3826 81.9753 82.3158 82.2636 81.9405 83.1276C81.6111 83.886 82.0444 84.9133 82.9579 85.2005C84.1108 85.563 85.0638 85.4251 85.3877 84.3867C85.6623 83.5067 85.1588 82.9824 84.419 82.4577ZM81.5191 85.5346C81.2392 85.6636 80.9218 85.7504 80.7013 85.9463C80.6311 86.0088 80.7582 86.4778 80.9026 86.5524C81.101 86.6549 81.6021 86.6149 81.6233 86.5385C81.7046 86.2464 81.6457 85.9152 81.5191 85.5346Z" fill="#CBE45C"/>
<path d="M90.8333 63.6645C89.8304 60.2854 88.024 57.3705 85.6816 54.7682C84.9788 53.9873 84.2503 53.2295 83.5459 52.45C83.4004 52.289 83.2918 52.087 83.1963 51.8894C82.6388 50.736 83.0456 50.0661 84.293 50.1857C84.8837 50.2424 85.4552 50.5001 86.0999 50.6683C87.4366 52.2684 88.8266 53.7894 89.9457 55.4889C90.9292 56.9824 91.6723 58.6479 92.3971 60.2922C92.7688 61.1355 92.8683 62.0988 93.0215 63.0874C92.2458 63.3328 91.5396 63.4987 90.8333 63.6645Z" fill="#79AA01"/>
<path d="M83.2222 48.6763C82.3281 48.4601 81.4676 48.2633 80.6502 47.9532C79.948 47.6867 79.7388 46.6608 80.2951 46.1452C80.6833 45.7854 81.1997 45.509 81.707 45.3416C84.8675 44.2992 87.8005 42.8604 90.3095 40.5506C90.6446 40.3042 90.9545 40.1077 91.345 39.847C92.1042 38.9208 92.7829 38.0587 93.4385 37.226C93.5025 37.5256 93.57 37.8418 93.6375 38.158C92.9474 41.3848 91.1329 43.8684 88.4355 45.6703C86.7878 46.771 84.9997 47.6615 83.2222 48.6763Z" fill="#028600"/>
<path d="M76.6638 72.6831C76.3855 72.1477 76.106 71.6129 75.8293 71.0767C74.8414 69.1617 73.7171 67.3039 73.3324 65.067C73.3369 64.9611 73.3425 64.9232 73.3491 64.8279C73.5241 65.0509 73.7167 65.3216 73.8697 65.6132C75.8561 69.4007 78.4873 72.7193 81.3026 75.9437C81.2264 76.05 81.1288 76.1398 81.1309 76.1422C82.1143 77.263 83.1036 78.3786 84.1065 79.4819C84.1172 79.4937 84.3079 79.342 84.4145 79.2666C86.5549 81.8015 88.6952 84.3364 90.8514 86.9266C90.1596 86.5398 89.373 86.1867 88.758 85.6403C86.1833 83.353 83.66 81.0079 81.119 78.6827C81.0792 78.6463 81.0542 78.5937 81.001 78.4251C81.2328 76.6214 80.8359 76.095 79.2073 75.999C79.1691 74.285 78.1177 73.3274 76.6638 72.6831Z" fill="#E8F87E"/>
<path d="M32.9938 20.4557C32.3933 21.1245 31.7394 20.9589 31.0467 20.6164C29.8339 20.0167 28.6485 19.3155 27.3724 18.9005C25.3287 18.2359 23.1944 18.2019 21.0566 18.4409C20.3711 18.5176 19.6737 18.4876 18.9034 18.503C22.7898 15.7973 28.3065 15.8433 31.6867 19.2417C32.0928 19.65 32.5401 20.0174 32.9938 20.4557Z" fill="#429A01"/>
<path d="M93.6568 38.0938C93.57 37.8418 93.5025 37.5256 93.4385 37.226C92.7829 38.0587 92.1042 38.9208 91.3712 39.799C91.39 39.6124 91.4198 39.3774 91.5429 39.2116C92.9193 37.3578 93.2318 35.2236 93.1497 33.0046C93.0999 31.6582 92.9447 30.3157 92.8415 28.8955C93.2032 29.9388 93.7984 31.0441 93.8641 32.1801C93.9764 34.1198 93.7565 36.0788 93.6568 38.0938Z" fill="#449A01"/>
<path d="M90.833 63.704C91.5396 63.4987 92.2458 63.3328 93.024 63.1614C92.9942 64.0208 92.8926 64.8858 92.7529 65.7956C91.7305 65.5633 91.1515 64.8961 90.8564 63.878C90.8331 63.8227 90.8327 63.7436 90.833 63.704Z" fill="#429A01"/>
<path d="M84.4121 79.2688C84.3079 79.3419 84.1172 79.4936 84.1065 79.4818C83.1036 78.3786 82.1143 77.2629 81.1309 76.1421C81.1288 76.1398 81.2264 76.0499 81.328 75.9956C82.346 77.0156 83.3134 78.041 84.2772 79.1413C84.3168 79.2348 84.3601 79.2533 84.4034 79.2719C84.4034 79.2719 84.4098 79.2711 84.4121 79.2688Z" fill="#D3E367"/>
<path d="M91.0338 87.273C90.978 87.2443 90.915 87.1629 90.8505 87.0261C90.9082 87.0539 90.9674 87.1371 91.0338 87.273Z" fill="#E8F87E"/>
<path d="M18.7938 18.5046C18.7964 18.5358 18.7564 18.5787 18.6719 18.63C18.6687 18.5977 18.71 18.5571 18.7938 18.5046Z" fill="#429A01"/>
<path d="M84.391 79.239C84.3601 79.2533 84.3168 79.2347 84.2958 79.1933C84.3182 79.1704 84.3785 79.2062 84.391 79.239Z" fill="#E8F87E"/>
<path d="M92.8548 28.7802C92.8261 28.7814 92.7976 28.7396 92.7949 28.6783C92.8321 28.685 92.8436 28.7112 92.8548 28.7802Z" fill="#449A01"/>
<path d="M60.0491 18.813C57.6843 16.8013 58.7644 14.1593 60.4904 13.3232C61.6788 12.7475 63.175 12.8575 64.0864 13.6564C65.1149 14.558 65.5373 15.6602 65.1302 17.006C64.7686 18.2016 63.4276 19.3116 62.1483 19.3123C61.4646 19.3127 60.7806 19.0153 60.0491 18.813Z" fill="#DDFE24"/>
<path d="M58.2869 21.1393C57.4173 21.7073 56.5965 21.5682 56.1788 20.8352C55.7991 20.1687 56.0623 19.2788 56.7487 18.9087C57.441 18.5355 58.3068 18.8007 58.6539 19.5058C58.9519 20.1112 58.7375 20.6246 58.2869 21.1393Z" fill="#D9FA23"/>
<path d="M42.7152 52.6967C42.087 53.1986 41.5677 52.9626 41.2933 52.437C41.1368 52.1372 41.1751 51.5016 41.3893 51.3062C41.6174 51.0981 42.235 51.0833 42.5432 51.2468C43.118 51.5518 43.1534 52.1083 42.7152 52.6967Z" fill="#D5F721"/>
<path d="M48.6613 81.8276C48.6176 81.6536 48.6285 81.4291 48.5217 81.3132C47.2981 79.9853 47.5012 78.123 48.2735 77.0073C49.2192 75.6412 50.9462 74.9652 52.5964 75.4485C53.2912 75.652 53.9089 76.1188 54.6157 76.4845C54.6699 76.503 54.6684 76.4975 54.6738 76.5393C54.7231 76.6161 54.7669 76.6511 54.8108 76.6862C55.4616 77.5782 55.7721 78.5658 55.6524 79.7487C55.1216 80.5752 54.5838 81.325 54.0572 82.0826C53.9585 82.2245 53.8351 82.3998 53.8408 82.5554C53.891 83.9451 52.8429 85.0811 51.3526 85.1607C50.0782 85.2288 48.9688 84.7228 47.9547 84.01C47.327 83.5688 47.2037 82.3668 48.3998 81.9677C48.5206 82.0168 48.5464 82.0406 48.5446 82.1222C48.1413 82.7755 48.1928 83.3884 48.8138 83.677C49.952 84.206 51.1551 84.599 52.3866 83.8677C52.9023 83.5615 53.4489 83.2109 53.2862 82.5265C53.1229 81.8393 52.6499 81.4304 51.8726 81.3244C50.7446 81.1704 49.7303 81.4087 48.731 81.9083C48.7078 81.8814 48.6613 81.8276 48.6613 81.8276Z" fill="#480605"/>
<path d="M67.2842 78.0414C67.5842 78.4889 67.84 78.8942 68.0959 79.2996C67.9895 79.3789 67.8832 79.4583 67.7769 79.5376C67.5255 79.2839 67.2645 79.0388 67.0245 78.7746C66.368 78.052 65.6701 78.2025 65.3582 79.1385C65.2166 79.5634 65.0673 79.9858 64.8965 80.4816C64.2193 79.7823 64.2646 78.8569 64.8774 78.1653C65.5032 77.4588 66.3702 77.3979 67.2842 78.0414Z" fill="#4F1007"/>
<path d="M57.9989 73.1312C57.8218 73.7818 57.4131 74.1712 56.8402 73.9357C56.4895 73.7916 56.062 73.2799 56.0782 72.9536C56.0944 72.6263 56.5751 72.1329 56.9299 72.0518C57.6191 71.8941 57.9881 72.3583 57.9989 73.1312Z" fill="#E7FA7B"/>
<path d="M57.6403 76.4733C57.8594 76.6526 58.0785 76.8319 58.2977 77.0112C58.1207 77.1651 57.9437 77.3189 57.7667 77.4728C57.623 77.1954 57.4793 76.9181 57.387 76.5687C57.5056 76.4889 57.573 76.4811 57.6403 76.4733Z" fill="#ADBD43"/>
<path d="M57.6572 76.4129C57.573 76.481 57.5056 76.4888 57.3875 76.5013C57.0374 76.2498 56.5456 76.0198 57.1006 75.5813C57.2256 75.4826 57.5062 75.5808 57.7151 75.5884C57.7014 75.8431 57.6877 76.0979 57.6572 76.4129Z" fill="#DEF372"/>
<path d="M54.8035 76.6431C54.7669 76.6511 54.7231 76.6161 54.6712 76.5384C54.7075 76.5306 54.7519 76.5653 54.8035 76.6431Z" fill="#6DC124"/>
<path d="M48.4578 81.9555C48.4709 81.8868 48.521 81.8555 48.6162 81.8259C48.6613 81.8276 48.7078 81.8813 48.7082 81.9394C48.6712 82.0361 48.6257 82.0584 48.5722 82.0644C48.5464 82.0405 48.5206 82.0167 48.4578 81.9555Z" fill="#480605"/>
<path d="M76.594 72.6852C78.1177 73.3273 79.1691 74.2849 79.2073 75.9989C80.8359 76.0949 81.2328 76.6213 80.9716 78.3732C80.4988 78.9842 80.0672 79.5569 79.5627 80.0558C78.5171 81.0897 76.721 80.8379 75.9249 79.6181C75.7893 79.4104 75.4628 79.2687 75.1998 79.2125C73.9534 78.9463 73.0179 78.2935 72.4818 77.124C71.9689 76.0052 72.0255 74.9038 72.7435 73.8973C73.4811 72.8632 74.5405 72.4722 75.7878 72.5653C76.035 72.5837 76.2789 72.6456 76.594 72.6852ZM78.8621 76.4768C78.2586 76.8001 77.6024 77.0542 77.0652 77.4642C76.4053 77.9678 76.4537 78.7866 76.8681 79.3328C77.1134 79.656 77.9 79.8242 78.3286 79.6916C78.9466 79.5004 79.5547 79.0545 79.9857 78.5595C80.2714 78.2313 80.4004 77.5945 80.3114 77.1541C80.1876 76.5413 79.5961 76.3748 78.8621 76.4768Z" fill="#4A0606"/>
<path d="M84.4762 82.4854C85.1588 82.9823 85.6623 83.5067 85.3877 84.3867C85.0638 85.4251 84.1108 85.563 82.9579 85.2005C82.0444 84.9133 81.6111 83.886 81.9405 83.1276C82.3158 82.2636 83.3826 81.9752 84.4762 82.4854Z" fill="#ECFE81"/>
<path d="M81.5792 85.5667C81.6457 85.9153 81.7047 86.2464 81.6234 86.5386C81.6021 86.6149 81.1011 86.655 80.9026 86.5524C80.7582 86.4778 80.6311 86.0088 80.7013 85.9464C80.9218 85.7505 81.2393 85.6637 81.5792 85.5667Z" fill="#E8FB7C"/>
<path d="M48.5446 82.1222C48.6257 82.0584 48.6712 82.0361 48.7314 81.9663C49.7303 81.4087 50.7446 81.1704 51.8726 81.3243C52.6499 81.4304 53.1229 81.8393 53.2862 82.5265C53.4489 83.2109 52.9023 83.5614 52.3866 83.8677C51.1551 84.599 49.952 84.206 48.8138 83.677C48.1928 83.3884 48.1412 82.7754 48.5446 82.1222Z" fill="#C1F8F5"/>
<path d="M78.9228 76.466C79.5961 76.3748 80.1876 76.5414 80.3114 77.1541C80.4004 77.5945 80.2714 78.2313 79.9857 78.5595C79.5547 79.0545 78.9466 79.5004 78.3286 79.6916C77.9 79.8242 77.1134 79.656 76.8681 79.3328C76.4537 78.7866 76.4053 77.9678 77.0652 77.4642C77.6024 77.0542 78.2586 76.8001 78.9228 76.466Z" fill="#C1F7F4"/>
</svg>
