<svg width="120" height="120" viewBox="0 0 120 120" fill="none" xmlns="http://www.w3.org/2000/svg">
<path d="M85.5464 16.8906C87.7484 16.4089 89.9408 15.5726 92.1541 15.5129C98.4561 15.3428 103.351 18.1203 106.86 23.3506C108.327 25.5357 108.901 28.0383 109.444 30.5514C110.229 34.1881 112.014 37.2352 114.566 39.9457C117.098 42.636 118.911 45.7887 119.587 49.4984C119.604 49.5907 119.74 49.6614 119.91 49.7032C120 52.4816 120 55.299 120 58.2262C119.845 58.4741 119.592 58.5869 119.549 58.7539C117.865 65.2904 113.882 69.8734 107.763 72.6343C106.933 73.0091 106.046 73.2604 104.999 73.5749C101.079 74.3432 97.3681 74.3061 93.6114 73.2089C90.6189 72.1256 87.9568 70.6736 85.8724 68.3861C88.9711 67.5941 91.7981 66.4118 94.3759 64.6455C104.821 57.4892 107.187 43.9261 99.7156 33.9922C97.8584 31.5227 95.5119 29.6203 92.9283 27.9551C88.8799 25.3457 86.4656 21.6073 85.5464 16.8906Z" fill="#00C755"/>
<path d="M0 49.5397C0.157463 49.2716 0.405813 49.1391 0.45899 48.9514C1.55504 45.0815 3.56505 41.8037 6.36683 38.8896C8.78769 36.3717 10.2293 33.1999 10.7556 29.7352C11.8625 22.4481 17.9564 16.4967 25.1499 15.6303C28.2822 15.2531 31.1985 15.6926 34.1505 16.9461C33.1456 21.9249 30.5114 25.6506 26.3412 28.3846C24.5936 29.5304 22.8868 30.843 21.4668 32.3647C17.1423 36.9991 15.1935 42.5569 15.7873 48.8964C16.6593 58.2075 24.083 65.6649 32.5177 67.9954C33.0353 68.1384 33.5217 68.3946 33.976 68.6656C31.7142 70.8618 29.0638 72.2508 26.1113 73.2961C21.8323 74.457 17.6731 74.4064 13.5412 73.026C13.2547 72.9303 12.9393 72.9209 12.6374 72.8713C12.6374 72.8713 12.6595 72.8564 12.6253 72.8486C12.5402 72.8068 12.494 72.7674 12.4525 72.7226C7.48176 70.6224 3.852 67.1241 1.62074 62.2155C1.04387 60.9465 0.654091 59.5924 0.0891867 58.3067C7.05477e-07 55.4405 7.03125e-07 52.545 0 49.5397Z" fill="#00B730"/>
<path d="M26.2023 73.2813C29.0638 72.2508 31.7142 70.8618 34.0527 68.6401C35.3293 68.6585 36.4811 68.7902 37.6362 68.8777C41.0976 69.1398 44.4566 68.5734 47.7891 67.6726C48.2634 68.3429 48.7094 68.928 49.1551 69.5132C50.5228 71.3088 51.9902 73.0383 53.2342 74.9159C54.991 77.5674 57.5071 78.5067 60.4948 78.6646C60.3365 79.1926 60.2098 79.6423 60.0464 80.0783C58.6729 83.7434 57.822 87.5192 57.535 91.4087C56.4562 90.935 55.5886 91.0901 55.035 92.0541C54.5092 92.9697 54.8234 93.8131 55.5993 94.4286C56.3223 95.0022 57.1254 95.4748 57.893 96.0974C57.9334 96.6279 57.9449 97.0582 58.0193 97.4772C59.1866 104.051 62.4298 109.448 67.3383 113.901C68.3431 114.812 69.3377 115.734 70.337 116.652C63.1148 116.666 55.8862 116.867 48.6729 116.619C44.8793 116.489 41.55 114.722 39.4168 111.392C38.7492 110.35 38.5913 108.982 38.2315 107.576C38.3136 106.851 38.4059 106.311 38.4082 105.771C38.4219 102.496 38.366 99.2213 38.4261 95.9482C38.5268 90.468 36.9213 85.5196 33.5385 81.271C31.2919 78.4494 28.6611 75.9338 26.2023 73.2813ZM47.5239 91.9367C47.4882 91.1998 47.5348 90.4469 47.3955 89.7302C47.2262 88.8593 46.5598 88.4008 45.6926 88.4252C44.8307 88.4494 44.1442 88.923 44.0665 89.8124C43.9653 90.971 43.9695 92.1505 44.0622 93.3103C44.1281 94.1332 44.7262 94.6163 45.563 94.6901C46.445 94.768 47.0985 94.3869 47.3642 93.5328C47.4996 93.0976 47.4757 92.6128 47.5239 91.9367Z" fill="#8DD470"/>
<path d="M70.4357 116.669C69.3378 115.734 68.3431 114.812 67.3384 113.901C62.4298 109.448 59.1867 104.051 58.0194 97.4772C57.945 97.0582 57.9335 96.628 57.9877 96.1167C60.8063 96.8267 63.2466 96.3677 65.3062 94.3495C66.2157 93.4584 66.265 92.4324 65.5054 91.6682C64.7875 90.946 63.8366 90.9854 62.9103 91.7759C61.0291 93.3813 59.305 93.27 57.6221 91.4344C57.8221 87.5192 58.6729 83.7434 60.0464 80.0783C60.2098 79.6423 60.3365 79.1926 60.584 78.6367C63.4199 78.1685 65.3452 76.7133 66.8941 74.4394C68.5109 72.0659 70.4259 69.8956 72.3024 67.652C73.1402 67.8523 73.8861 68.0372 74.7041 68.2664C78.4397 69.1447 82.1117 69.0698 85.7892 68.4144C87.9568 70.6736 90.6189 72.1256 93.5394 73.2634C93.2516 73.6246 92.9577 73.8809 92.6697 74.1437C88.5736 77.8833 84.9043 81.9663 82.8532 87.217C80.443 93.3866 81.5059 99.829 81.5579 106.186C82.0752 111.803 77.6441 115.007 73.4547 116.209C72.513 116.479 71.5094 116.533 70.4357 116.669ZM76.8285 90.0259C76.6054 88.9643 75.9829 88.349 74.8676 88.4312C73.871 88.5047 73.3421 89.2731 73.3254 90.5489C73.3151 91.3299 73.3012 92.1121 73.3339 92.8919C73.3815 94.0274 74.0392 94.6999 75.054 94.7065C76.0592 94.7131 76.7651 94.0435 76.8303 92.9239C76.8824 92.0287 76.8423 91.1281 76.8285 90.0259Z" fill="#ACE094"/>
<path d="M26.1113 73.296C28.6612 75.9338 31.292 78.4494 33.5386 81.271C36.9214 85.5196 38.5269 90.468 38.4262 95.9482C38.3661 99.2213 38.422 102.496 38.4082 105.771C38.406 106.311 38.3137 106.851 38.2227 107.48C35.1317 105.8 33.2507 103.077 32.1231 99.8376C31.1457 97.0296 30.2851 94.1744 29.5172 91.3015C28.3738 87.0241 25.7667 83.9229 22.1281 81.5616C20.0779 80.231 18.0205 78.9053 16.0441 77.4704C15.2816 76.9168 14.6847 76.1047 14.1032 75.3412C13.5557 74.6223 13.1278 73.8123 12.6423 72.9569C12.9394 72.9209 13.2548 72.9303 13.5413 73.026C17.6731 74.4064 21.8324 74.4569 26.1113 73.296Z" fill="#6DC847"/>
<path d="M81.6333 106.151C81.5058 99.829 80.4429 93.3866 82.8531 87.217C84.9043 81.9663 88.5736 77.8833 92.6697 74.1438C92.9576 73.8809 93.2515 73.6246 93.6147 73.3108C97.368 74.3062 101.079 74.3432 104.911 73.5897C103.233 76.5803 100.77 78.8254 97.736 80.4921C94.7678 82.1228 91.9621 84.0401 90.2953 87.0626C89.3136 88.8429 88.7542 90.8749 88.1433 92.8367C86.9418 96.695 86.1025 100.695 83.6541 104.042C83.0988 104.801 82.362 105.427 81.6333 106.151Z" fill="#6DC848"/>
<path d="M12.7104 68.6628C12.7284 68.6658 12.7746 68.7051 12.8671 68.7579C12.8409 68.7762 12.7826 68.7522 12.7104 68.6628Z" fill="#6DC847"/>
<path d="M85.8723 68.3861C82.1117 69.0698 78.4396 69.1447 74.667 68.1879C74.197 67.6572 73.8288 67.2553 73.4766 66.8401C70.7291 63.6015 67.804 60.4946 65.2774 57.0917C60.1919 50.2423 56.6368 42.6596 55.1833 34.1755C54.1751 28.2902 54.4483 22.4463 55.672 16.5893C55.7338 16.5062 55.7625 16.4542 55.8746 16.3742C58.7414 15.4309 60.5607 15.9507 62.5038 18.2176C63.3086 19.1564 64.2444 19.3533 65.0581 18.7548C65.9173 18.1229 66.025 17.1137 65.2715 16.0729C63.6149 13.7848 61.3575 12.5667 58.5358 12.3993C58.0827 12.3724 57.6295 12.3483 57.0222 12.3144C57.197 11.6953 57.2742 11.1955 57.4743 10.751C58.5135 8.44313 59.5413 6.12839 60.6599 3.85884C61.3119 2.5361 62.1267 1.29361 62.8682 0.0150146C68.1299 0.605895 72.9223 2.43036 77.069 5.72593C80.7856 8.67967 83.6791 12.314 85.4711 16.8462C86.4655 21.6073 88.8798 25.3457 92.9282 27.9551C95.5118 29.6203 97.8583 31.5227 99.7156 33.9922C107.187 43.9261 104.82 57.4892 94.3759 64.6455C91.798 66.4118 88.9711 67.5941 85.8723 68.3861ZM76.3109 33.7223C76.738 34.8713 77.2434 35.9987 77.5682 37.1759C77.8451 38.1792 78.4544 38.8711 79.3635 38.8533C80.3191 38.8345 81.0242 38.0775 81.0765 36.9892C81.0913 36.6792 81.0789 36.3624 81.032 36.0558C80.6212 33.3705 79.3638 31.1815 77.0491 29.7245C74.0924 27.8633 70.9823 27.7445 67.9435 29.4513C65.083 31.058 63.5072 33.5846 63.5324 36.9137C63.5369 37.5157 64.0541 38.3319 64.5764 38.6417C64.9798 38.8809 65.8853 38.65 66.3372 38.3162C66.7255 38.0294 66.9067 37.3157 66.9736 36.7657C67.2499 34.494 68.378 32.8718 70.5446 32.1358C72.6991 31.4038 74.6194 31.9216 76.3109 33.7223ZM68.5985 53.7392C68.2565 55.4435 68.4997 57.0837 69.1817 58.6617C69.6893 59.8363 70.5991 60.2869 71.5963 59.9105C72.5176 59.5629 72.8474 58.6397 72.472 57.4501C72.4133 57.2641 72.3352 57.0842 72.2759 56.8984C71.4537 54.3236 72.5767 51.6286 74.9532 50.4693C77.3673 49.2917 80.1462 50.0328 81.682 52.2639C81.903 52.585 82.0853 52.943 82.3515 53.2207C82.9155 53.8089 83.6006 54.021 84.37 53.6351C85.1784 53.2295 85.4726 52.5322 85.2722 51.6815C85.1676 51.2378 84.9476 50.7967 84.6873 50.418C82.5904 47.3676 79.6595 46.0079 76.0126 46.4918C72.2491 46.9911 69.5339 49.6925 68.5985 53.7392Z" fill="#55D47B"/>
<path d="M63.0717 0C62.4437 1.2936 61.6289 2.53609 60.977 3.85883C59.8583 6.12837 58.8305 8.44311 57.7913 10.7509C57.5912 11.1954 57.514 11.6953 57.3392 12.3143C57.9465 12.3483 58.3997 12.3724 58.8528 12.3993C61.6745 12.5667 63.932 13.7848 65.5885 16.0729C66.342 17.1137 66.2343 18.1229 65.3751 18.7548C64.5614 19.3533 63.6256 19.1564 62.8209 18.2176C60.8777 15.9507 59.0584 15.4309 56.2097 16.2843C56.3333 15.4656 56.5514 14.7162 56.7085 13.9543C56.782 13.5978 56.7377 13.217 56.7468 12.8473C56.3392 12.8565 55.9013 12.7709 55.5286 12.8897C52.0939 13.9843 49.3602 17.676 49.6213 21.2832C49.7348 22.8513 50.4016 24.4256 51.0542 25.8917C51.4642 26.8129 52.4989 26.9445 53.3957 26.4522C54.3061 25.9524 54.3443 25.0995 54.0039 24.2104C53.8511 23.8112 53.6315 23.4376 53.4781 23.0386C52.5087 20.5177 53.5726 17.7779 55.9599 16.6227C54.7653 22.4463 54.4921 28.2901 55.5004 34.1755C56.9538 42.6596 60.5089 50.2423 65.5944 57.0917C68.121 60.4946 71.0461 63.6015 73.7936 66.8401C74.1459 67.2553 74.514 67.6571 74.9118 68.1437C74.203 68.0372 73.4572 67.8523 72.5526 67.607C70.0854 66.2778 67.7161 65.1065 65.4825 63.7171C62.161 61.651 58.8638 61.4659 55.458 63.3948C52.996 64.7892 50.5376 66.1897 48.0777 67.5875C44.7736 68.5734 41.4146 69.1398 37.9532 68.8777C36.7981 68.7902 35.6463 68.6585 34.4163 68.5726C33.8387 68.3946 33.3524 68.1384 32.8347 67.9954C24.4 65.6649 16.9764 58.2075 16.1043 48.8964C15.5105 42.5569 17.4593 36.9991 21.7839 32.3647C23.2038 30.843 24.9106 29.5304 26.6582 28.3846C30.8284 25.6505 33.4626 21.9249 34.5486 16.9841C36.1024 13.3276 38.1665 10.1056 41.0229 7.44868C44.926 3.81825 49.4324 1.25806 54.7511 0.4831C57.4536 0.0893282 60.2204 0.136928 63.0717 0ZM40.8624 51.4372C39.9584 52.6937 39.9644 53.745 40.8795 54.4141C41.8121 55.096 42.7717 54.8074 43.7435 53.5525C47.5659 48.6167 45.5781 41.6894 39.7292 39.6551C36.536 38.5444 33.6261 39.2341 31.0988 41.3736C30.6013 41.7948 30.3357 42.7024 30.3173 43.3951C30.3067 43.7925 30.9737 44.4962 31.3982 44.5479C32.0056 44.6218 32.7608 44.3602 33.2928 44.0033C34.6384 43.1006 36.0362 42.4991 37.6758 42.7438C41.4428 43.3059 43.7154 47.9272 40.8624 51.4372Z" fill="#00C755"/>
<path d="M47.7892 67.6726C50.2207 66.1897 52.6791 64.7891 55.141 63.3948C58.5469 61.4659 61.844 61.651 65.1655 63.7171C67.3991 65.1065 69.7684 66.2777 72.1437 67.5915C70.4259 69.8956 68.5109 72.0659 66.8941 74.4393C65.3452 76.7132 63.4199 78.1684 60.5986 78.552C57.5071 78.5067 54.991 77.5674 53.2343 74.9159C51.9903 73.0383 50.5229 71.3088 49.1552 69.5132C48.7094 68.928 48.2635 68.3429 47.7892 67.6726Z" fill="#6DC847"/>
<path d="M57.535 91.4087C59.3049 93.27 61.029 93.3814 62.9102 91.776C63.8365 90.9855 64.7875 90.946 65.5053 91.6682C66.2649 92.4324 66.2156 93.4584 65.3061 94.3496C63.2466 96.3677 60.8062 96.8268 57.988 96.0112C57.1254 95.4749 56.3223 95.0023 55.5993 94.4287C54.8234 93.8131 54.5092 92.9698 55.035 92.0542C55.5886 91.0901 56.4562 90.9351 57.535 91.4087Z" fill="#FFA0FA"/>
<path d="M47.5239 92.0435C47.4757 92.6128 47.4996 93.0976 47.3642 93.5328C47.0986 94.3869 46.445 94.768 45.5631 94.6901C44.7263 94.6163 44.1281 94.1333 44.0623 93.3103C43.9695 92.1505 43.9654 90.971 44.0666 89.8124C44.1443 88.923 44.8308 88.4494 45.6927 88.4252C46.5599 88.4008 47.2263 88.8593 47.3955 89.7302C47.5348 90.4469 47.4882 91.1998 47.5239 92.0435Z" fill="#00C755"/>
<path d="M76.8359 90.1279C76.8423 91.1281 76.8824 92.0287 76.8303 92.9239C76.7651 94.0435 76.0592 94.7131 75.054 94.7065C74.0392 94.6999 73.3815 94.0274 73.3339 92.8919C73.3012 92.1121 73.3151 91.3299 73.3254 90.5489C73.3421 89.2731 73.871 88.5047 74.8676 88.4313C75.9829 88.349 76.6054 88.9643 76.8359 90.1279Z" fill="#00C755"/>
<path d="M76.254 33.6589C74.6194 31.9215 72.6992 31.4038 70.5447 32.1358C68.378 32.8718 67.25 34.494 66.9736 36.7657C66.9067 37.3157 66.7256 38.0294 66.3372 38.3162C65.8853 38.65 64.9798 38.8809 64.5764 38.6417C64.0542 38.3319 63.537 37.5157 63.5324 36.9137C63.5072 33.5846 65.083 31.058 67.9435 29.4513C70.9824 27.7445 74.0924 27.8633 77.0491 29.7245C79.3639 31.1815 80.6213 33.3705 81.032 36.0558C81.0789 36.3624 81.0914 36.6792 81.0765 36.9892C81.0242 38.0775 80.3191 38.8345 79.3635 38.8533C78.4544 38.8711 77.8451 38.1792 77.5683 37.1759C77.2434 35.9987 76.738 34.8713 76.254 33.6589Z" fill="#01C756"/>
<path d="M68.618 53.6412C69.5339 49.6925 72.2491 46.9911 76.0126 46.4918C79.6595 46.0079 82.5904 47.3676 84.6873 50.418C84.9476 50.7967 85.1676 51.2377 85.2722 51.6815C85.4726 52.5322 85.1784 53.2295 84.37 53.6351C83.6006 54.021 82.9154 53.8089 82.3515 53.2207C82.0852 52.943 81.903 52.585 81.6819 52.2639C80.1462 50.0328 77.3673 49.2917 74.9532 50.4693C72.5767 51.6286 71.4537 54.3235 72.2758 56.8984C72.3352 57.0842 72.4132 57.2641 72.4719 57.4501C72.8474 58.6397 72.5176 59.5629 71.5963 59.9105C70.5991 60.2869 69.6892 59.8363 69.1816 58.6617C68.4997 57.0837 68.2565 55.4435 68.618 53.6412Z" fill="#01C756"/>
<path d="M55.9063 16.4876C53.49 17.6762 52.4261 20.4159 53.3954 22.9369C53.5489 23.3359 53.7685 23.7095 53.9213 24.1086C54.2617 24.9977 54.2235 25.8507 53.313 26.3505C52.4163 26.8428 51.3816 26.7112 50.9715 25.7899C50.319 24.3239 49.6521 22.7496 49.5386 21.1814C49.2775 17.5743 52.0113 13.8826 55.446 12.7879C55.8187 12.6691 56.2566 12.7547 56.6642 12.7455C56.6551 13.1153 56.6993 13.496 56.6258 13.8525C56.4687 14.6145 56.2507 15.3639 56.0395 16.2083C55.9968 16.3524 55.9682 16.4044 55.9063 16.4876Z" fill="#00B731"/>
<path d="M40.6014 51.3707C43.3983 47.9272 41.1257 43.3059 37.3588 42.7438C35.7192 42.4992 34.3214 43.1006 32.9758 44.0033C32.4438 44.3602 31.6886 44.6219 31.0811 44.5479C30.6566 44.4962 29.9897 43.7925 30.0002 43.3951C30.0187 42.7024 30.2842 41.7948 30.7817 41.3736C33.3091 39.2341 36.219 38.5444 39.4122 39.6551C45.2611 41.6894 47.2488 48.6167 43.4265 53.5525C42.4547 54.8074 41.4951 55.0961 40.5624 54.4141C39.6474 53.745 39.6413 52.6937 40.6014 51.3707Z" fill="#00B731"/>
</svg>
