<svg width="80" height="80" viewBox="0 0 80 80" fill="none" xmlns="http://www.w3.org/2000/svg">
<path d="M69.75 6.45C69.6977 6.36263 69.6392 6.27908 69.575 6.2C69.4592 5.97686 69.2973 5.78086 69.1 5.625H68.875C68.6787 5.50818 68.4688 5.41583 68.25 5.35L67.75 5H67.5H30C29.337 5 28.7011 5.26339 28.2322 5.73223C27.7634 6.20107 27.5 6.83696 27.5 7.5V22.5C27.5 23.163 27.7634 23.7989 28.2322 24.2678C28.7011 24.7366 29.337 25 30 25C30.663 25 31.2989 24.7366 31.7678 24.2678C32.2366 23.7989 32.5 23.163 32.5 22.5V10H50.475L41.775 12.5C41.2436 12.6605 40.7806 12.9933 40.4593 13.446C40.1379 13.8986 39.9763 14.4454 40 15V62.5H32.5V55C32.5 54.337 32.2366 53.7011 31.7678 53.2322C31.2989 52.7634 30.663 52.5 30 52.5C29.337 52.5 28.7011 52.7634 28.2322 53.2322C27.7634 53.7011 27.5 54.337 27.5 55V65C27.5 65.663 27.7634 66.2989 28.2322 66.7678C28.7011 67.2366 29.337 67.5 30 67.5H40V72.5C40 72.8881 40.0904 73.2709 40.2639 73.618C40.4375 73.9652 40.6895 74.2671 41 74.5C41.4327 74.8246 41.9591 75 42.5 75C42.7404 75.0352 42.9846 75.0352 43.225 75L68.225 67.5C68.7564 67.3395 69.2194 67.0067 69.5407 66.5541C69.8621 66.1014 70.0237 65.5546 70 65V7.5C69.9941 7.13597 69.9088 6.77762 69.75 6.45ZM65 63.15L45 69.15V16.85L65 10.85V63.15Z" fill="#00C755"/>
<path d="M18.525 42.5H35C35.663 42.5 36.2989 42.2366 36.7677 41.7677C37.2366 41.2989 37.5 40.663 37.5 40C37.5 39.3369 37.2366 38.701 36.7677 38.2322C36.2989 37.7634 35.663 37.5 35 37.5H18.525L21.775 34.275C22.2457 33.8042 22.5102 33.1657 22.5102 32.5C22.5102 31.8342 22.2457 31.1957 21.775 30.725C21.3042 30.2542 20.6657 29.9897 20 29.9897C19.3342 29.9897 18.6957 30.2542 18.225 30.725L10.725 38.225C10.4974 38.4627 10.319 38.7431 10.2 39.05C9.94994 39.6586 9.94994 40.3413 10.2 40.95C10.319 41.2569 10.4974 41.5372 10.725 41.775L18.225 49.275C18.4574 49.5093 18.7339 49.6953 19.0385 49.8222C19.3432 49.9491 19.67 50.0145 20 50.0145C20.33 50.0145 20.6568 49.9491 20.9614 49.8222C21.2661 49.6953 21.5426 49.5093 21.775 49.275C22.0093 49.0426 22.1953 48.7661 22.3222 48.4614C22.4491 48.1568 22.5145 47.83 22.5145 47.5C22.5145 47.1699 22.4491 46.8432 22.3222 46.5385C22.1953 46.2339 22.0093 45.9574 21.775 45.725L18.525 42.5Z" fill="#00C755"/>
<path d="M50 42.5C50.663 42.5 51.2989 42.2366 51.7678 41.7678C52.2366 41.2989 52.5 40.663 52.5 40C52.5 39.337 52.2366 38.7011 51.7678 38.2322C51.2989 37.7634 50.663 37.5 50 37.5C49.337 37.5 48.7011 37.7634 48.2322 38.2322C47.7634 38.7011 47.5 39.337 47.5 40C47.5 40.663 47.7634 41.2989 48.2322 41.7678C48.7011 42.2366 49.337 42.5 50 42.5Z" fill="#00C755"/>
</svg>
