<svg width="100" height="100" viewBox="0 0 100 100" fill="none" xmlns="http://www.w3.org/2000/svg">
<g clip-path="url(#clip0_118_1153)">
<path d="M100.195 73.1585C99.3733 73.1502 98.5512 73.0581 97.663 72.9587C98.0966 73.5927 98.5752 74.2019 98.9417 74.8725C99.0896 75.143 98.9923 75.5476 99.0066 75.8911C98.5803 75.7764 98.0126 75.7944 97.7556 75.5206C97.1317 74.856 96.6523 74.0557 96.02 73.1788C95.8175 73.6821 95.6426 74.053 95.5184 74.4402C95.32 75.059 94.9515 75.5548 94.2913 75.3135C94.1072 75.2463 94.1186 74.4492 94.1667 74.0005C94.2088 73.6078 94.4282 73.2341 94.572 72.8448C93.3498 72.5902 92.2788 74.3879 90.7551 72.8772C91.9453 72.2953 92.9368 71.8106 94.0342 71.2741C93.54 71.0624 93.0696 70.9531 92.7202 70.6857C92.3611 70.411 92.12 69.9819 91.8273 69.6204C92.273 69.5568 92.7209 69.433 93.1638 69.4487C93.5179 69.4612 93.8659 69.6433 94.2514 69.7607C94.1189 68.677 93.9981 67.6883 93.8771 66.6989C94.5143 66.6293 94.5143 66.6293 95.7919 69.2546C96.385 68.4496 96.192 67.1164 97.4849 66.769C98.3888 67.8613 97.27 68.8063 97.2844 69.8917C98.2854 69.7755 98.9342 68.5343 100.129 69.0049C100.195 69.2802 100.195 69.615 100.147 69.9668C99.3176 70.4478 98.5358 70.9117 97.6914 71.4128C98.5784 71.6457 99.3869 71.858 100.195 72.0703C100.195 72.4052 100.195 72.74 100.195 73.1585Z" fill="#FD8A02"/>
<path d="M0.195312 39.9274C1.05564 39.9049 1.91598 39.966 2.78538 40.0278C2.37961 39.3277 1.97752 38.634 1.54743 37.892C2.96606 37.3028 3.14434 38.5433 3.90725 39.0865C3.90725 38.3485 3.84331 37.7392 3.93398 37.1539C3.97992 36.8573 4.305 36.604 4.50388 36.3312C4.69523 36.5992 5.02511 36.8543 5.05159 37.1377C5.12675 37.9421 5.07794 38.758 5.07794 39.7657C5.53085 39.4872 5.84333 39.1881 6.20703 39.0997C6.62482 38.9981 7.08798 39.0831 7.53143 39.087C7.34706 39.4488 7.22555 39.8684 6.96074 40.1561C6.69357 40.4463 6.28422 40.6057 5.86732 40.866C6.84695 41.2375 7.74615 41.5784 8.80825 41.9812C7.6285 43.4776 6.56725 41.8988 5.626 42.2193C5.87643 42.9492 6.12936 43.6863 6.38229 44.4235C6.25258 44.512 6.12286 44.6005 5.99315 44.689C5.45194 44.2102 4.91072 43.7313 4.36206 43.2459C4.09146 43.7764 3.85344 44.3698 3.49766 44.8813C3.34369 45.1027 2.94678 45.1551 2.66022 45.2843C2.59929 45.0146 2.45046 44.7288 2.4965 44.4789C2.58117 44.0193 2.7805 43.5809 2.99216 43.0363C3.06242 42.8501 3.07256 42.7613 3.08269 42.6725C2.98877 42.7255 2.89484 42.7785 2.80091 42.8315C2.47305 43.0169 2.16413 43.2795 1.81198 43.3659C1.4596 43.4523 1.06401 43.3625 0.68736 43.3499C0.81061 43.0332 0.852092 42.6309 1.07474 42.4182C1.49229 42.0194 2.01467 41.7303 2.58653 41.3304C1.73018 41.1678 1.03344 41.0355 0.266004 40.9594C0.195313 40.6808 0.195312 40.3459 0.195312 39.9274Z" fill="#FD8A02"/>
<path d="M14.3804 41.6852C14.5209 40.5615 14.5451 39.4691 14.8913 38.4907C15.1672 37.7113 15.1745 37.0911 14.8657 36.3588C13.5591 33.2602 13.4874 30.1844 15.1287 27.1611C16.8327 24.0221 19.6201 22.48 23.0096 21.8986C24.0021 21.7284 24.5766 21.4044 24.9194 20.3562C26.6111 15.1833 31.8415 11.7444 37.2941 12.123C37.7432 12.1542 38.1918 12.2713 38.628 12.3935C39.2926 12.5796 39.573 12.3643 39.6565 11.6665C40.1188 7.80208 42.3313 5.32203 46.1284 4.45411C48.2834 3.96155 50.3348 4.41355 52.2425 5.45221C52.81 5.76116 53.1233 5.65543 53.4676 5.21483C57.4683 0.0952498 64.4581 -0.158976 69.3641 3.02688C73.3174 5.59408 75.2613 9.30115 75.3695 13.9736C75.3877 14.7596 75.6692 15.1119 76.3913 15.1921C79.1031 15.4931 80.894 17.0361 82.0585 19.4077C82.3632 20.0282 82.6973 20.2702 83.4911 20.178C89.5724 19.4711 94.9134 22.8108 96.6491 28.3828C97.6657 31.6462 97.0747 34.7619 95.2187 37.6013C94.7285 38.3513 94.8758 38.7511 95.4482 39.321C97.1832 41.0486 98.3456 43.0365 98.2591 45.6191C98.1936 47.574 97.4208 49.1505 95.9726 50.384C95.297 50.9593 95.1924 51.5888 95.3618 52.3629C96.3114 56.703 93.447 61.4301 90.381 63.2219C87.598 64.8484 84.7258 65.1931 81.7022 64.0444C81.3128 63.8964 80.9093 63.702 80.6065 63.4259C79.8162 62.7053 79.1371 62.7668 78.3373 63.4534C74.8459 66.4508 71.3551 69.5122 69.5124 73.8229C68.3621 76.514 67.8033 79.4595 66.9987 82.2964C66.2117 85.0712 65.6488 87.9283 64.634 90.6158C62.6956 95.749 58.6833 98.4122 53.37 99.2028C48.3681 99.9471 43.5768 99.0504 39.0439 96.9284C35.5277 95.2823 32.4969 92.9929 30.4141 89.5884C28.5569 86.5527 28.1967 83.3077 29.016 79.9451C29.6605 77.3004 30.4028 74.6585 31.3712 72.1181C33.383 66.8406 33.2609 61.6488 31.2488 56.4314C30.2428 53.8228 28.7612 51.5059 26.9612 49.3914C26.7382 49.1295 26.1155 48.918 25.8321 49.0402C20.5771 51.3068 14.8793 47.0261 14.3804 41.6852ZM89.4646 45.0534C91.855 46.0034 93.5972 47.6705 94.6929 49.9968C96.7599 48.5617 97.6348 46.3582 97.1229 44.1226C96.69 42.2322 95.6037 40.7744 94.1198 39.5772C93.1283 38.7775 93.1846 38.7567 93.8383 37.7001C95.6857 34.7139 96.6819 31.5304 95.4015 28.0629C93.7491 23.5875 89.3641 20.8792 84.2419 21.1223C82.8313 21.3109 82.8173 21.4247 82.9632 22.6612C83.3358 25.8182 82.4972 28.66 80.3159 31.0354C79.824 31.5711 79.2654 32.0456 78.5928 32.686C79.1526 32.833 79.5137 32.9362 79.8789 33.0223C83.2954 33.8278 85.6905 35.8167 86.5696 39.2529C86.913 40.5954 86.7953 42.0768 86.7479 43.4902C86.7212 44.2859 86.7911 44.7402 87.7175 44.7368C88.2629 44.7347 88.8088 44.8831 89.4646 45.0534ZM37.5705 39.5234C37.9222 38.9687 37.6624 38.6193 37.1834 38.3258C33.5914 36.1254 32.0467 30.9523 34.1499 27.261C34.5006 26.6454 34.3973 26.201 33.8056 25.7699C30.6851 23.4963 27.2599 22.2588 23.3726 22.8741C19.9788 23.4113 17.2545 25.0083 15.6851 28.3967C14.5469 31.1278 14.8356 33.811 16.0639 36.412C16.434 37.1956 16.5007 37.7884 16.054 38.575C15.6847 39.2251 15.471 40.0381 15.4354 40.7906C15.2705 44.2767 17.9117 47.5906 21.4435 48.4447C24.2989 49.1352 26.6345 47.9687 27.719 45.2452C27.9874 44.5713 28.3551 44.3388 29.0767 44.2849C32.5742 44.0234 35.6013 42.8526 37.5705 39.5234ZM50.4078 22.5109C51.3563 20.3134 53.049 18.8664 55.1066 17.7503C55.5504 17.5096 56.077 17.0817 56.1987 16.6392C57.5128 11.8607 54.5129 6.81576 49.6806 5.63311C46.8434 4.93875 44.3018 5.45639 42.3509 7.77287C41.1561 9.19156 40.7134 10.9213 40.619 12.7483C40.5595 13.902 40.3774 14.0325 39.2349 13.7403C39.046 13.6919 38.8569 13.6437 38.6705 13.587C33.121 11.8991 28.2291 15.6409 26.4487 19.4506C26.2782 19.8719 26.1081 20.2933 25.937 20.7144C25.6345 21.4592 25.7676 21.8107 26.6856 21.9016C29.3975 22.1702 31.8701 23.1576 34.0456 24.7913C34.7857 25.3471 35.1872 25.4019 35.8491 24.6433C38.3292 21.8014 41.4901 20.5837 45.2119 21.3416C46.6467 21.6337 47.9998 22.3659 49.3602 22.9656C49.8711 23.1908 50.2082 23.3202 50.4078 22.5109ZM71.5153 33.1748C71.5405 33.4347 71.5657 33.6945 71.5908 33.9535C72.8812 33.5857 74.0189 33.1815 75.1903 32.9409C81.0762 31.7321 83.5194 24.7886 81.2551 20.028C80.1873 17.7833 78.4614 16.371 75.911 16.1783C74.2017 16.0492 74.1397 16.0795 74.2498 14.3082C74.5996 8.68189 70.556 3.82172 65.5221 2.44834C61.3159 1.30078 56.8518 2.56616 54.3722 5.74498C53.8266 6.28852 53.8939 6.73479 54.4306 7.30905C56.6754 9.71091 57.8377 12.522 57.3698 15.8595C57.2592 16.6488 57.4818 16.8313 58.2513 16.7125C60.4794 16.3684 62.6022 16.743 64.5471 17.9006C68.3097 20.1402 70.1715 23.6868 71.0523 27.7929C71.4169 29.4924 71.3896 31.276 71.5153 33.1748ZM89.1915 62.6541C90.7318 61.9725 91.868 60.8229 92.7652 59.4431C97.138 52.7185 92.4916 44.9218 86.2272 45.6347C85.5165 45.7156 85.3187 45.2755 85.5005 44.629C85.6147 44.2227 85.7358 43.817 85.8224 43.4044C86.4312 40.5061 85.7353 37.9974 83.5495 35.9545C80.6491 33.2438 75.2828 32.8748 71.6848 35.1697C71.4798 35.5881 71.1851 35.986 71.0838 36.4283C70.1668 40.4329 68.4491 43.966 65.1868 46.6034C64.6545 47.0338 64.546 47.5108 64.7532 48.1509C65.5225 50.528 67.0268 52.2183 69.3722 53.1014C71.6408 53.9555 73.9491 53.9171 76.2746 53.3116C77.3671 53.0272 77.4755 53.2447 77.5015 54.3124C77.5357 55.7217 77.5334 57.2138 77.9874 58.5168C79.939 64.118 85.9924 64.6064 89.1915 62.6541ZM61.4947 47.5401C63.4005 46.9781 64.9274 45.831 66.1988 44.3563C69.6978 40.2982 70.8745 35.484 70.4671 30.2667C70.1573 26.2998 68.8148 22.7169 65.7754 19.9469C60.8357 15.445 52.9137 17.6074 50.9829 23.9983C50.7555 24.7508 50.3548 24.7088 49.8118 24.397C48.9385 23.8957 48.0985 23.319 47.1834 22.9108C43.7999 21.4017 39.797 22.0312 37.3507 24.4519C36.6809 25.322 35.884 26.1224 35.3624 27.0737C32.5302 32.2388 35.0831 37.5965 40.8553 38.7104C43.3246 39.1869 45.624 38.7398 47.7877 37.47C48.9277 36.8009 49.2627 36.9869 49.4209 38.272C49.6893 40.4528 50.1979 42.5518 51.4726 44.399C53.5494 47.4086 58.1138 48.8775 61.4947 47.5401ZM29.6945 84.5206C30.0841 87.3723 31.3826 89.7973 33.4364 91.7424C38.9441 96.9587 45.572 99.0253 53.0443 98.1431C58.4078 97.5099 62.187 94.5848 63.9971 89.419C64.7454 87.2834 65.3905 85.0832 65.7887 82.8597C66.5206 78.7728 67.2709 74.6899 69.6971 71.2269C71.3097 68.9252 73.2368 66.8438 75.1415 64.6102C76.3306 63.6764 77.5196 62.7426 78.7576 61.7703C77.3466 59.9528 76.5526 57.9594 76.4297 55.6131C75.7507 55.8458 75.2246 55.9383 74.7905 56.1896C72.4894 57.5216 70.2138 58.8976 67.9242 60.2496C66.9493 60.8253 66.0182 61.5371 64.9689 61.912C62.5553 62.7745 60.6411 61.3862 60.5583 58.8356C60.5437 58.3852 60.5867 57.9227 60.6767 57.4808C61.1742 55.0391 62.4945 53.0628 64.1847 51.2876C64.4162 51.0445 64.6669 50.584 64.5867 50.323C64.3247 49.4692 63.9139 48.6611 63.5521 47.8162C57.5673 50.2999 52.9024 48.8093 49.53 43.1181C49.4595 43.4174 49.4076 43.5616 49.3935 43.7094C49.1374 46.3928 48.8955 49.0776 48.6265 51.7598C48.5592 52.4306 48.5252 53.1421 48.2716 53.7497C47.6318 55.2831 46.0668 55.7324 44.7658 54.7127C44.1 54.1909 43.5537 53.4515 43.1172 52.7135C41.2315 49.5255 39.4102 46.2994 37.553 43.0943C37.3684 42.7759 37.0989 42.5066 36.8786 42.227C35.8984 42.8413 35.0578 43.4728 34.1288 43.9209C33.2012 44.3682 32.1971 44.8736 31.2051 44.9229C29.4638 45.0093 28.3826 45.6997 27.6797 47.2873C27.4179 47.8787 27.3215 48.1898 27.7496 48.7169C33.8827 56.2684 35.6632 64.5251 31.8881 73.749C30.5053 77.1276 29.5004 80.6338 29.6945 84.5206ZM47.656 49.3375C47.9591 47.1249 48.1175 44.8792 48.6149 42.7112C48.9591 41.211 48.5283 39.9308 48.2838 38.4914C47.9656 38.5931 47.7416 38.6322 47.5484 38.7313C45.0425 40.0171 42.4358 40.2622 39.7045 39.6009C39.3628 39.5181 38.7177 39.7147 38.5762 39.9774C38.2635 40.558 37.463 40.9973 38.0338 41.9413C39.7806 44.8303 41.4289 47.7787 43.1331 50.6937C43.7215 51.7001 44.283 52.7409 45.0177 53.6336C45.302 53.9791 46.0966 54.1723 46.5398 54.0391C46.93 53.9219 47.3369 53.2837 47.4151 52.8212C47.598 51.7403 47.5879 50.6268 47.656 49.3375ZM64.2579 52.8302C62.9166 54.3814 61.9153 56.1127 61.5901 58.1617C61.4425 59.0915 61.6108 60.0183 62.3617 60.6608C63.0991 61.2918 64.0035 61.2769 64.8475 60.8899C65.5808 60.5537 66.2821 60.1321 66.9562 59.6858C67.9293 59.0415 68.8182 58.2589 69.8267 57.6814C71.7892 56.5575 73.8099 55.5351 75.549 54.6079C74.7143 54.6742 73.5554 54.8878 72.4096 54.8323C69.9026 54.711 67.6685 53.8416 65.8053 52.0877C65.6455 51.9373 65.1535 52.0432 64.866 52.1569C64.6535 52.2409 64.5227 52.5312 64.2579 52.8302Z" fill="#01123E"/>
<path d="M24.7981 7.03117C25.264 7.16853 25.6867 7.24744 26.0247 7.46061C26.242 7.59768 26.3348 7.9322 26.4834 8.17822C26.2365 8.31668 25.972 8.5971 25.7456 8.56912C24.748 8.44582 23.7615 8.23361 22.7058 8.04179C22.9807 8.49445 23.3199 8.88845 23.469 9.34461C23.6203 9.80791 23.5841 10.3325 23.63 10.8303C23.17 10.6335 22.6739 10.4916 22.263 10.2205C21.9928 10.0423 21.8454 9.67783 21.5576 9.27809C21.1504 10.0814 20.8444 10.8083 20.4216 11.4594C20.2506 11.7226 19.8244 11.82 19.5143 11.9929C19.3911 11.6746 19.1112 11.3201 19.1747 11.0449C19.347 10.2988 19.665 9.58628 19.9415 8.81535C18.8099 8.95916 18.1205 10.7061 16.5802 9.31034C17.4697 8.56528 18.2888 7.87914 19.1952 7.11997C18.5116 7.01814 17.8996 6.85135 17.2882 6.85325C16.3173 6.85626 16.0329 6.43968 16.3072 5.43182C17.3625 5.5034 18.4237 5.57537 19.6598 5.65922C19.1056 4.96495 18.6131 4.46192 18.2729 3.87116C18.1154 3.59767 18.2549 3.15318 18.2598 2.78621C18.6357 2.88531 19.0877 2.88673 19.3696 3.10646C19.7897 3.43398 20.0898 3.91551 20.441 4.33151C20.5285 4.28469 20.616 4.23787 20.7035 4.19105C20.7035 3.4287 20.627 2.65498 20.7379 1.90912C20.7882 1.57059 21.2098 1.28725 21.463 0.978882C21.6658 1.2362 22.0053 1.47322 22.0471 1.75445C22.2024 2.80104 22.26 3.86216 22.3635 5.0208C22.7735 4.78547 23.1729 4.43577 23.6296 4.32747C24.1014 4.21558 24.8751 4.14246 25.0798 4.39986C25.4832 4.90716 24.9551 5.26649 24.4694 5.54708C24.0367 5.79709 23.6684 6.15876 23.1586 6.56026C23.7796 6.74706 24.2492 6.88835 24.7981 7.03117Z" fill="#FD8A02"/>
<path d="M11.3301 71.0795C11.5994 70.2504 12.0053 70.401 12.5035 70.7908C13.2435 71.3699 14.0123 71.912 14.7689 72.4698C14.7041 72.6132 14.6394 72.7566 14.5746 72.9C14.7299 72.4578 14.9109 72.0227 15.0342 71.5719C15.1976 70.9746 15.4979 70.494 16.1673 70.7353C16.7458 70.9438 16.5907 71.4533 16.4248 71.939C16.2664 72.4031 16.2153 72.9038 16.0993 73.4762C16.8839 73.098 17.57 72.6921 18.3091 72.4441C18.6532 72.3286 19.1001 72.5192 19.5004 72.571C19.3196 72.8892 19.2133 73.3113 18.9432 73.5048C18.3032 73.9634 17.5855 74.3135 16.8518 74.7347C17.5057 75.3931 18.9788 74.9156 19.134 76.4288C18.3147 76.4288 17.5187 76.4288 16.6819 76.4288C16.884 77.4014 17.0894 78.3903 17.3139 79.4705C15.2911 79.5846 15.9872 77.7112 15.1302 77.005C14.926 77.6644 14.7805 78.3212 14.5094 78.9211C14.3959 79.1723 14.016 79.303 13.7572 79.4885C13.5986 79.2207 13.2908 78.942 13.3096 78.6873C13.3645 77.9416 13.5494 77.2055 13.7055 76.3436C12.8386 76.8652 12.0823 77.3202 11.3444 77.7641C10.5082 77.0126 10.5198 76.8172 11.3557 76.2365C11.8688 75.88 12.3724 75.5098 13.0696 75.01C12.259 74.8466 11.6568 74.8035 11.1245 74.5879C10.8138 74.462 10.6148 74.0601 10.3656 73.7824C10.7373 73.6258 11.0985 73.3837 11.4837 73.3362C11.8803 73.2873 12.3002 73.428 12.8682 73.508C12.298 72.6364 11.8139 71.8965 11.3301 71.0795Z" fill="#FD8A02"/>
<path d="M89.4675 8.21883C89.8193 8.07598 90.1603 7.87273 90.5259 7.80768C90.874 7.74575 91.2477 7.82811 91.6102 7.84703C91.4473 8.21297 91.3726 8.6785 91.0997 8.92038C90.7343 9.24434 90.2153 9.39513 89.5742 9.71371C90.2693 9.8913 90.8328 9.9472 91.3024 10.187C91.602 10.3401 91.7625 10.7655 91.9853 11.0687C91.708 11.1568 91.4225 11.3375 91.1549 11.3141C90.5379 11.2601 89.9296 11.107 89.1983 10.972C89.5362 11.526 89.8862 11.9748 90.0875 12.4825C90.1888 12.7382 90.0201 13.1009 89.9735 13.4151C89.6601 13.3275 89.2633 13.3291 89.0525 13.1318C88.7211 12.8217 88.5151 12.3777 88.1834 11.8819C88.0719 12.6288 88.0407 13.2566 87.8651 13.8411C87.7751 14.1411 87.4274 14.3637 87.1962 14.6213C87.0371 14.351 86.7433 14.0804 86.7438 13.8104C86.7452 12.9543 86.8566 12.0984 86.9252 11.2456C86.3595 11.4168 85.8537 11.6056 85.3312 11.7115C85.1048 11.7574 84.8438 11.6324 84.5985 11.5851C84.6926 11.2982 84.7016 10.9076 84.8985 10.7462C85.3052 10.4129 85.812 10.2019 86.2859 9.93592C85.4438 9.28683 84.0655 9.48884 83.6268 7.84304C84.7903 8.11291 85.7118 8.32666 86.7919 8.5772C86.5589 8.10597 86.2837 7.74329 86.2119 7.34403C86.1528 7.01544 86.3349 6.64347 86.4101 6.29073C86.6999 6.44103 87.0393 6.53944 87.266 6.75585C87.5057 6.98463 87.6382 7.32578 87.8639 7.69333C88.4589 6.94316 89.0146 6.2426 89.618 5.48193C90.5021 6.58548 89.5682 7.21296 89.3236 8.05217C89.2019 8.2097 89.1688 8.27613 89.1358 8.34255C89.2464 8.30131 89.3569 8.26007 89.4675 8.21883Z" fill="#FD8A02"/>
<path d="M74.871 94.1982C74.4914 94.426 74.1353 94.7304 73.7245 94.8568C73.408 94.9542 73.0226 94.8278 72.6678 94.801C72.6195 94.6855 72.5713 94.57 72.523 94.4545C73.1827 93.8673 73.8423 93.2802 74.4985 92.6962C73.8035 92.1808 72.2264 93.0732 72.2542 91.1768C73.1596 91.2572 74.0052 91.3322 74.9724 91.4181C74.6044 90.9234 74.2445 90.5328 74.0051 90.0786C73.884 89.8488 73.9807 89.5042 73.979 89.2115C74.2957 89.2362 74.6928 89.1509 74.9111 89.3103C75.2747 89.5758 75.5238 89.9982 75.9775 90.542C75.9775 89.7123 75.9133 89.102 76.0045 88.5159C76.0504 88.2208 76.3781 87.9695 76.5784 87.6984C76.7684 87.9675 77.0957 88.2238 77.1221 88.5082C77.1969 89.3119 77.1483 90.127 77.1483 91.1332C77.6012 90.8546 77.9138 90.5553 78.2776 90.4667C78.6944 90.3654 79.1567 90.4512 79.5993 90.4556C79.4155 90.817 79.2944 91.2359 79.0304 91.5238C78.7649 91.8135 78.3573 91.973 77.9404 92.2344C78.916 92.6049 79.814 92.946 80.8734 93.3483C79.6994 94.8369 78.6424 93.2798 77.7387 93.5728C77.9722 94.3088 78.208 95.0517 78.4437 95.7946C78.314 95.8807 78.1844 95.9668 78.0547 96.0528C77.5158 95.5734 76.9769 95.0939 76.4333 94.6103C76.1613 95.1444 75.9234 95.7392 75.5672 96.2517C75.4138 96.4724 75.0154 96.5227 74.7284 96.6504C74.6684 96.3808 74.5212 96.095 74.5673 95.845C74.6521 95.3857 74.8508 94.9475 75.0622 94.4033C75.1326 94.2173 75.1429 94.1285 75.1532 94.0398C75.0591 94.0926 74.9651 94.1454 74.871 94.1982Z" fill="#FD8A02"/>
<path d="M29.7196 84.364C29.5004 80.6338 30.5054 77.1276 31.8881 73.749C35.6632 64.5251 33.8827 56.2684 27.7496 48.7169C27.3215 48.1898 27.4179 47.8787 27.6797 47.2873C28.3826 45.6997 29.4638 45.0093 31.2051 44.9229C32.1971 44.8736 33.2012 44.3682 34.1288 43.9209C35.0578 43.4728 35.8984 42.8413 36.8786 42.227C37.0989 42.5066 37.3684 42.7759 37.553 43.0943C39.4102 46.2994 41.2315 49.5255 43.1172 52.7135C43.5537 53.4515 44.1 54.1909 44.7658 54.7127C46.0668 55.7324 47.6318 55.2831 48.2717 53.7497C48.5252 53.1421 48.5592 52.4306 48.6265 51.7598C48.8955 49.0776 49.1374 46.3928 49.3935 43.7094C49.4076 43.5616 49.4596 43.4174 49.53 43.1181C52.9024 48.8093 57.5673 50.2999 63.5521 47.8162C63.9139 48.6611 64.3247 49.4692 64.5867 50.323C64.6669 50.584 64.4162 51.0445 64.1847 51.2876C62.4945 53.0628 61.1742 55.0391 60.6767 57.4808C60.5867 57.9227 60.5437 58.3852 60.5583 58.8356C60.6411 61.3862 62.5553 62.7745 64.9689 61.9121C66.0182 61.5371 66.9493 60.8253 67.9242 60.2496C70.2138 58.8976 72.4894 57.5216 74.7905 56.1896C75.2246 55.9383 75.7507 55.8458 76.4297 55.6131C76.5526 57.9594 77.3466 59.9528 78.7576 61.7703C77.5196 62.7426 76.3306 63.6764 75.0013 64.634C72.1705 65.0239 69.8239 66.0538 67.9299 68.0726C65.9007 70.2354 64.3068 72.6477 63.3492 75.4657C62.7968 77.0916 62.2351 78.7144 61.6246 80.2958C60.2567 78.4355 58.4188 77.8443 56.274 78.0456C55.2746 78.1393 54.4148 78.5626 54.1483 79.6186C53.8836 80.6676 54.4408 81.4636 55.2365 82.05C56.8941 83.2716 58.7118 83.7807 60.7316 83.1571C60.0516 84.562 59.5187 85.9829 58.6824 87.1945C57.1756 89.3773 55.0047 90.5019 52.3175 90.184C51.0143 90.0299 49.6651 89.7094 48.4902 89.1448C46.2146 88.0514 44.0403 86.7448 41.8376 85.5026C39.7331 84.3158 37.5736 83.2668 35.155 82.9195C33.8057 82.7257 32.4213 82.5668 31.155 83.2693C30.6343 83.5581 30.1956 83.9947 29.7196 84.364ZM41.0382 68.372C40.98 68.3436 40.9243 68.3075 40.8632 68.2882C40.4267 68.1505 40.0323 67.4208 39.5695 68.1068C39.4972 68.214 40.0793 68.7433 40.3335 69.0958C40.5723 69.427 40.9105 69.7603 40.9723 70.1314C41.1494 71.1962 41.9102 71.9959 42.9671 72.0597C43.984 72.1212 44.8478 71.4739 45.0342 70.5106C45.2309 69.4947 44.5838 68.3443 43.5089 68.1139C42.6914 67.9386 41.9578 67.8385 41.6909 66.8855C41.6586 66.7699 41.2608 66.6852 41.0566 66.7217C40.9653 66.738 40.8483 67.1123 40.8936 67.2845C40.983 67.6241 41.1774 67.9361 41.2485 68.3282C41.2229 68.3523 41.1974 68.3763 41.0382 68.372ZM33.5516 51.9065C34.891 54.2873 35.7815 56.815 35.9876 59.5528C36.1217 61.3345 36.1887 63.1214 36.3293 64.9025C36.3507 65.1743 36.5623 65.5872 36.7686 65.6463C36.9944 65.7109 37.4455 65.5166 37.5714 65.302C37.9269 64.6958 38.3169 64.0459 38.4268 63.3698C39.1026 59.2109 38.6321 55.2058 36.57 51.4676C35.7574 49.9945 34.6946 48.7159 33.2253 47.8693C32.8932 47.678 32.2452 47.7144 31.9315 47.926C31.7268 48.0642 31.7122 48.7827 31.8754 49.1104C32.337 50.0375 32.934 50.8972 33.5516 51.9065ZM36.1584 73.8303C35.7398 74.5262 35.8552 75.1939 36.2623 75.8478C37.3716 77.6291 40.6589 78.6081 42.5468 77.7187C43.6862 77.182 44.0984 76.0254 43.4969 74.9585C42.346 72.917 38.074 71.6525 36.1584 73.8303ZM58.4483 72.4981C58.1621 72.539 57.8637 72.5415 57.592 72.6278C56.7406 72.8983 56.2049 73.5011 56.1186 74.3795C56.0391 75.1902 56.4576 75.8136 57.1648 76.2131C57.9461 76.6546 58.85 76.7107 59.4183 76.0634C60.0705 75.3207 60.7288 75.04 61.6655 75.1511C61.8291 75.1705 62.0303 74.8726 62.2141 74.7213C62.0186 74.5528 61.8468 74.2969 61.6223 74.2361C61.2717 74.1413 60.8854 74.1787 60.2562 74.1472C60.8054 73.7919 61.1798 73.6105 61.4672 73.3375C61.6067 73.205 61.6463 72.8877 61.6032 72.6807C61.5855 72.5956 61.1274 72.4722 61.0452 72.5505C60.2058 73.3502 59.4102 72.8599 58.4483 72.4981ZM52.7238 75.0554C52.5452 75.2864 52.3873 75.5377 52.1843 75.7449C51.4081 76.5373 50.4926 76.9611 49.3685 76.6536C48.2445 76.3461 47.6144 75.542 47.4446 74.4327C47.3488 73.8067 47.4765 73.1496 47.4376 72.5106C47.421 72.2381 47.2359 71.9759 47.1273 71.7091C46.9178 71.9132 46.5831 72.0845 46.5194 72.3269C46.1456 73.7503 46.3473 75.1065 47.221 76.3136C48.0891 77.5131 49.5896 77.9856 51.0419 77.5624C52.4215 77.1605 54.0228 75.4727 54.094 74.2892C54.1062 74.0854 53.899 73.8685 53.7931 73.6576C53.6084 73.7575 53.3583 73.8126 53.2532 73.9667C53.0551 74.257 52.9407 74.6043 52.7238 75.0554Z" fill="#91D628"/>
<path d="M37.4572 24.3798C39.797 22.0312 43.7999 21.4017 47.1834 22.9108C48.0985 23.3189 48.9385 23.8957 49.8118 24.397C50.3548 24.7088 50.7555 24.7508 50.9829 23.9983C52.9137 17.6074 60.8357 15.4449 65.7754 19.9468C68.8148 22.7169 70.1573 26.2998 70.4671 30.2667C70.8745 35.4839 69.6978 40.2981 66.1988 44.3563C64.9274 45.831 63.4005 46.9781 61.3791 47.4906C61.0491 47.2978 60.8443 47.1366 60.6186 47.0139C58.5737 45.9027 57.4704 44.0843 56.802 41.9105C56.8112 41.8778 56.8291 41.8124 56.8967 41.7978C57.8885 40.9149 58.8127 40.0466 59.7673 39.1496C59.84 39.2283 59.9948 39.3897 60.1427 39.557C62.2191 41.9062 65.2732 41.5341 66.7059 38.7441C67.0022 38.1671 67.3801 37.4086 66.7063 36.9878C65.8965 36.4821 65.6326 37.3685 65.3056 37.8906C64.3053 39.4876 62.3238 39.4957 61.3377 37.8773C61.0526 37.4094 60.9247 36.8414 60.6174 36.3927C60.3478 35.9991 59.928 35.7083 59.5745 35.3721C59.2499 35.7321 58.8687 36.0572 58.6181 36.4629C58.4023 36.8123 58.3489 37.2586 58.2 37.6532C57.8157 38.6713 57.3591 39.6373 56.2145 40.0869C56.1302 40.0725 56.0964 40.0668 56.0615 39.9751C55.7671 38.329 55.6834 36.6904 55.1346 35.2262C54.1603 32.6268 51.0568 31.6287 48.35 31.9315C46.967 32.0862 45.6148 32.4986 44.2371 32.7241C43.3155 32.8749 42.3509 33.016 41.6573 32.179C41.8775 32.1051 42.0349 32.0688 42.19 32.0243C44.225 31.441 45.5061 29.6658 45.2879 27.5714C45.2435 27.1449 44.8117 26.4434 44.5335 26.431C44.1208 26.4127 43.6687 26.8739 43.2699 27.1788C43.1388 27.279 43.1131 27.5252 43.0531 27.7092C42.4081 29.6863 42.1109 29.8772 40.0175 29.5976C39.9436 29.528 39.8967 29.493 39.8494 29.3756C39.6659 27.3567 39.384 25.468 37.4572 24.3798ZM56.2558 25.8739C55.9199 26.6795 55.6818 27.5464 55.2246 28.276C54.5762 29.3107 53.698 29.3948 52.744 28.644C52.2855 28.2831 51.8994 27.8283 51.432 27.4815C51.1783 27.2933 50.8227 27.2423 50.5131 27.1294C50.4095 27.4777 50.1477 27.8693 50.2291 28.1671C50.636 29.6554 51.4906 30.8076 53.0439 31.2587C54.6097 31.7134 56.134 30.9313 57.1531 29.2051C57.4219 28.7499 57.6826 28.2898 57.861 27.9809C59.0461 28.56 60.0383 29.2199 61.1302 29.5437C63.8016 30.3357 66.6839 27.8869 66.3705 25.1373C66.3211 24.7043 65.8589 24.3184 65.5876 23.9107C65.1872 24.1801 64.7462 24.4071 64.4025 24.7359C64.2138 24.9165 64.1832 25.2667 64.0912 25.5438C63.4468 27.4847 62.2018 27.8066 60.7654 26.3624C60.0794 25.6727 59.5062 24.8709 58.8205 24.1808C57.9127 23.2674 57.0188 23.4972 56.609 24.6994C56.4938 25.0374 56.3996 25.3826 56.2558 25.8739Z" fill="#028100"/>
<path d="M61.6776 80.3386C62.2351 78.7144 62.7967 77.0916 63.3492 75.4656C64.3068 72.6476 65.9007 70.2354 67.9299 68.0726C69.8239 66.0538 72.1705 65.0239 74.9421 64.6608C73.2368 66.8438 71.3097 68.9251 69.6971 71.2268C67.2709 74.6899 66.5206 78.7728 65.7887 82.8597C65.3905 85.0831 64.7454 87.2834 63.9971 89.4189C62.187 94.5847 58.4078 97.5099 53.0443 98.1431C45.572 99.0253 38.9441 96.9586 33.4364 91.7424C31.3826 89.7973 30.0841 87.3722 29.707 84.4423C30.1956 83.9946 30.6343 83.5581 31.1549 83.2692C32.4213 82.5667 33.8057 82.7257 35.155 82.9194C37.5736 83.2668 39.7331 84.3157 41.8376 85.5025C44.0403 86.7448 46.2145 88.0514 48.4902 89.1448C49.6651 89.7093 51.0143 90.0298 52.3175 90.184C55.0047 90.5018 57.1756 89.3773 58.6824 87.1944C59.5186 85.9829 60.0516 84.562 60.7803 83.1224C61.9979 82.2242 62.1304 81.802 61.6776 80.3386Z" fill="#6DA42E"/>
<path d="M71.8157 35.1356C75.2828 32.8748 80.6492 33.2438 83.5495 35.9545C85.7354 37.9974 86.4313 40.5061 85.8224 43.4044C85.7358 43.817 85.6147 44.2227 85.5005 44.629C85.3187 45.2755 85.5165 45.7156 86.2273 45.6347C92.4916 44.9218 97.138 52.7185 92.7652 59.4431C91.868 60.8229 90.7319 61.9725 89.074 62.6215C87.7461 62.1063 86.4646 61.7358 85.7179 60.4916C85.7239 60.4517 85.7343 60.3717 85.7895 60.3344C85.9561 60.0233 86.0675 59.7495 86.1789 59.4757C85.9013 59.3707 85.6302 59.2378 85.3437 59.1711C85.1689 59.1305 84.9705 59.1918 84.7503 59.1428C84.274 57.488 83.784 55.9086 83.4008 54.3037C83.1088 53.0808 82.7357 51.9465 81.8082 51.0302C80.1236 49.3658 78.0256 49.0112 75.7825 48.9504C75.5647 48.5724 75.3594 48.2621 75.1441 47.9369C74.7509 48.1608 74.3921 48.3651 74.0134 48.5077C73.6136 47.6052 72.9827 46.7841 72.9147 45.9187C72.8206 44.721 73.1501 43.49 73.3797 42.2851C74.2608 42.2371 75.0605 42.1772 75.8939 42.1148C75.9918 42.704 76.0445 43.3533 76.2133 43.971C76.6397 45.5319 77.9361 46.5954 79.4245 46.6745C80.8321 46.7494 82.774 45.6476 83.2689 44.4308C83.3881 44.1379 83.2954 43.7588 83.3002 43.4193C82.9649 43.4239 82.606 43.3551 82.3007 43.4532C81.9724 43.5587 81.6926 43.8179 81.3948 44.0149C79.7802 45.0832 78.3434 44.4048 78.171 42.4688C78.1374 42.0911 78.2561 41.7013 78.2901 41.3158C78.351 40.6249 79.2213 39.7838 78.3458 39.3139C77.8963 39.0728 77.0055 39.5646 76.3503 39.8184C75.456 40.1647 74.5906 40.524 73.6231 39.9398C73.6016 39.4039 73.6049 38.9346 73.6389 38.4044C74.0498 37.6411 74.4569 36.9513 74.794 36.2289C74.8962 36.0097 74.8046 35.7002 74.8017 35.432C74.5039 35.4453 74.1595 35.3683 73.9189 35.4925C73.5291 35.6938 73.2074 36.0271 72.8257 36.2482C72.4682 35.8397 72.142 35.4876 71.8157 35.1356ZM86.374 53.2553C87.7582 53.0484 87.7582 53.0484 87.8337 54.4081C87.9492 56.4882 89.6667 58.0929 91.5501 57.7601C92.0394 57.6737 92.7014 57.2506 92.8463 56.8311C93.0747 56.1693 92.3451 55.9883 91.8236 55.8018C90.3646 55.28 90.0525 54.7828 90.2375 53.249C90.2722 52.9609 90.3733 52.6815 90.4233 52.3946C90.6418 51.1391 90.0946 50.5902 88.8519 50.8194C88.2152 50.9368 87.5863 51.136 86.9454 51.1832C84.9702 51.3285 84.5808 50.9179 84.7109 48.9538C84.7173 48.8567 84.7297 48.7586 84.7224 48.6622C84.667 47.9336 84.2993 47.755 83.6999 48.1626C82.8298 48.7542 82.4239 49.948 82.73 51.0152C83.1404 52.4459 84.2811 53.1829 86.374 53.2553Z" fill="#028101"/>
<path d="M54.4756 5.66417C56.8518 2.56612 61.3159 1.30074 65.5221 2.4483C70.556 3.82169 74.5996 8.68186 74.2498 14.3081C74.1397 16.0795 74.2017 16.0492 75.911 16.1783C78.4614 16.371 80.1873 17.7832 81.2551 20.028C83.5194 24.7885 81.0762 31.7321 75.1903 32.9409C74.0189 33.1814 72.8812 33.5856 71.5908 33.9535C71.5657 33.6945 71.5405 33.4347 71.5839 33.0703C73.0604 31.16 74.2732 29.2584 74.6638 26.9309C74.7109 26.9319 74.805 26.9263 74.871 26.9635C76.6924 27.6707 78.6341 27.2745 79.3963 26.0156C79.5765 25.7181 79.6222 25.1719 79.4631 24.8913C79.3448 24.6826 78.7972 24.6724 78.4383 24.6624C78.2347 24.6567 78.0243 24.8257 77.82 24.9226C76.26 25.6623 75.63 25.4219 74.9675 23.7778C74.9202 23.6296 74.8724 23.5351 74.8216 23.3524C74.8956 22.5317 75.0065 21.8007 75.0389 21.0662C75.0638 20.4991 74.9903 19.9276 74.9605 19.358C74.5144 19.6772 74.0683 19.9964 73.5777 20.2688C72.2594 18.2868 70.5362 16.8902 68.3517 16.1473C67.1296 15.7316 65.8383 15.5182 64.5767 15.2199C62.6185 14.7569 61.3278 13.6701 61.0814 11.562C61.0176 11.0164 60.853 10.4833 60.7554 9.94072C60.3491 7.68368 59.0224 6.27183 56.8 5.77994C56.0532 5.61466 55.252 5.69571 54.4756 5.66417ZM63.8472 9.29887C63.4085 8.30054 62.9813 7.29689 62.5241 6.30714C62.3892 6.01512 62.1693 5.76235 61.9884 5.4916C61.7658 5.74314 61.4505 5.95839 61.3356 6.25206C60.5477 8.26511 61.5192 10.9461 63.3906 12.0276C65.4282 13.2053 68.2505 12.6121 69.2008 10.7156C69.432 10.2543 69.2594 9.59055 69.2724 9.01987C68.7509 9.14032 68.1263 9.11811 67.7263 9.40694C66.3066 10.4322 65.3411 10.4775 63.8472 9.29887Z" fill="#028101"/>
<path d="M26.5341 19.3459C28.2291 15.6409 33.121 11.8991 38.6705 13.587C38.8569 13.6437 39.046 13.6919 39.2349 13.7403C40.3774 14.0325 40.5595 13.902 40.619 12.7483C40.7134 10.9213 41.1561 9.19156 42.3509 7.77288C44.3018 5.45639 46.8434 4.93875 49.6806 5.63311C54.5129 6.81576 57.5128 11.8608 56.1987 16.6392C56.077 17.0817 55.5504 17.5096 55.1066 17.7503C53.049 18.8664 51.3563 20.3134 50.3245 22.5564C49.9839 22.1998 49.7072 21.8086 49.4723 21.3938C48.2715 19.2739 46.6236 17.6629 44.1619 17.2287C43.0136 17.0261 41.7981 17.2044 40.5793 17.1983C40.5456 17.1866 40.4768 17.1672 40.4802 17.085C40.4791 16.8409 40.5348 16.6395 40.4591 16.5246C40.2206 16.1624 39.9637 15.5811 39.6575 15.5435C39.0388 15.4674 38.8292 16.0196 38.8375 16.606C38.8439 17.0591 38.8353 17.5125 38.7915 18.0173C38.4974 18.7517 38.0023 19.0465 37.2223 18.959C36.7582 18.6618 36.3402 18.4119 35.958 18.1159C35.3186 17.6206 34.7304 17.0535 34.0607 16.6062C33.8213 16.4463 33.3634 16.4474 33.0935 16.5698C32.9602 16.6302 32.9442 17.1555 33.0183 17.4321C33.3589 18.7032 34.1648 19.6605 35.1327 20.4991C34.7719 20.5297 34.4278 20.5988 34.1666 20.4822C33.4919 20.1809 32.8269 19.8393 32.2063 19.439C30.5765 18.388 28.9169 18.1984 27.1711 19.1229C26.9745 19.227 26.7472 19.273 26.5341 19.3459ZM42.4828 11.764C42.4016 13.1892 43.4172 14.5655 44.8915 15.0281C46.3455 15.4842 47.8977 15.0394 48.7722 13.9159C49.7377 12.6755 50.0713 10.2845 49.3975 9.19909C49.2803 9.01026 48.974 8.77233 48.8199 8.81158C48.5832 8.87184 48.2735 9.12406 48.2243 9.34578C48.1065 9.87594 48.1232 10.4359 48.0848 10.9837C47.973 12.5769 46.7728 13.4399 45.426 12.8287C44.876 12.5791 44.4183 12.1288 43.9117 11.7799C43.4895 11.4892 43.0722 11.0735 42.4828 11.764Z" fill="#028101"/>
<path d="M37.4039 24.4159C39.384 25.468 39.6659 27.3567 39.7837 29.3613C39.2681 29.124 38.8279 28.8018 38.3623 28.5218C38.135 28.3851 37.8604 28.3269 37.6073 28.2331C37.5164 28.5203 37.3248 28.817 37.3509 29.0932C37.5245 30.9292 39.1818 32.2506 41.1332 32.1203C41.3298 32.1632 41.4616 32.188 41.5935 32.2128C42.3509 33.016 43.3155 32.8749 44.2371 32.7241C45.6148 32.4987 46.967 32.0863 48.35 31.9316C51.0568 31.6288 54.1603 32.6268 55.1346 35.2262C55.6834 36.6905 55.767 38.329 55.9986 40.0053C55.5583 40.081 55.1014 40.1612 54.8159 39.9766C54.0401 39.4748 53.3476 38.8461 52.598 38.3008C52.3895 38.1491 52.097 38.1126 51.8431 38.0232C51.7526 38.281 51.516 38.6041 51.5971 38.7851C51.9448 39.562 52.253 40.424 52.8217 41.0201C53.8924 42.1423 55.3236 42.2516 56.7927 41.9433C57.4704 44.0844 58.5737 45.9027 60.6186 47.0139C60.8443 47.1366 61.049 47.2979 61.3037 47.5029C58.1138 48.8775 53.5494 47.4086 51.4726 44.399C50.1979 42.5518 49.6893 40.4528 49.4208 38.272C49.2627 36.9869 48.9277 36.8009 47.7877 37.47C45.624 38.7398 43.3245 39.1869 40.8553 38.7104C35.0831 37.5965 32.5302 32.2388 35.3624 27.0737C35.884 26.1224 36.6809 25.322 37.4039 24.4159Z" fill="#016510"/>
<path d="M15.7692 28.2855C17.2545 25.0083 19.9788 23.4112 23.3726 22.8741C27.2599 22.2588 30.6851 23.4962 33.8056 25.7699C34.3973 26.201 34.5006 26.6453 34.1499 27.2609C32.0468 30.9522 33.5914 36.1253 37.1834 38.3258C37.6624 38.6193 37.9222 38.9687 37.4524 39.5819C36.8785 39.4865 36.4058 39.3698 35.9701 39.1716C34.7922 38.6357 33.6301 38.0652 32.4483 37.459C32.4245 37.3771 32.4139 37.3446 32.4033 37.2393C32.0866 36.8176 31.77 36.4688 31.4534 36.12C31.1518 36.4465 30.8502 36.7729 30.5225 37.0986C30.4964 37.0978 30.4459 37.1113 30.368 37.113C29.5669 37.2525 28.8438 37.3904 28.0714 37.5304C27.9895 37.5359 27.9568 37.5392 27.8568 37.5158C25.8521 36.6446 25.2849 36.9246 24.7992 38.9677C24.7769 39.0615 24.7732 39.1597 24.7254 39.2855C24.6547 39.3658 24.6215 39.4177 24.5579 39.4989C24.485 39.5675 24.4497 39.6124 24.4411 39.6535C24.4626 39.6456 24.4873 39.684 24.417 39.7023C24.1383 39.8105 23.9287 39.8975 23.722 39.9909C21.8411 40.8402 20.7296 40.3276 20.2961 38.3111C20.1212 37.498 20.161 36.6388 20.1891 35.7951C22.5951 35.71 23.4369 34.9306 23.6616 32.5695C23.7243 31.9112 23.9618 31.7555 24.6007 31.8882C25.227 32.0184 25.8923 32.0876 26.5266 32.0301C29.0706 31.7995 30.4273 29.3133 29.0834 26.7032C28.961 26.4656 28.5141 26.1719 28.3411 26.2361C28.0829 26.332 27.863 26.6977 27.7575 26.995C27.6303 27.3534 27.6633 27.7651 27.5858 28.1454C27.3609 29.2491 26.8635 29.5593 25.7697 29.2565C25.2084 29.1011 24.6721 28.8551 24.1108 28.6997C22.9513 28.3786 22.2044 28.7763 21.904 29.9472C21.7366 30.5996 21.7435 31.2953 21.6506 31.9685C21.4912 33.1231 21.1654 33.4112 20.0117 33.4268C19.9957 33.4103 19.9194 33.3589 19.9135 33.2853C19.7508 32.689 19.6229 32.1555 19.432 31.6456C18.7823 29.9103 17.3706 28.9912 15.7692 28.2855Z" fill="#028101"/>
<path d="M73.2982 42.2732C73.1501 43.4899 72.8206 44.721 72.9147 45.9187C72.9826 46.7841 73.6136 47.6052 73.9584 48.5577C73.2251 49.1961 72.4738 49.462 71.6739 48.9378C70.8806 48.4178 70.8115 47.6202 70.981 46.7677C71.019 46.5766 71.1039 46.3729 71.0696 46.1938C70.9896 45.7764 70.8503 45.3705 70.735 44.9599C70.3118 45.1368 69.7875 45.2106 69.4836 45.509C68.3768 46.5961 68.2293 48.4459 69.0567 49.7401C69.8658 51.0056 71.7046 51.7613 73.0619 51.1073C74.0735 50.6198 74.8909 49.7292 75.7948 49.0181C78.0255 49.0111 80.1236 49.3658 81.8082 51.0302C82.7357 51.9465 83.1088 53.0807 83.4008 54.3037C83.784 55.9086 84.2739 57.488 84.7393 59.1813C84.7607 59.2842 84.7365 59.3605 84.6514 59.3619C82.6436 59.557 81.8621 58.5757 82.4586 56.7131C82.5574 56.4046 82.7435 56.104 82.7583 55.7935C82.7779 55.3839 82.6682 54.968 82.6141 54.5548C82.2009 54.7476 81.6721 54.838 81.3949 55.1512C80.3104 56.3768 80.2012 58.9036 81.1001 60.0798C82.0183 61.2812 83.5751 61.4756 85.4357 60.6234C85.5234 60.5833 85.6196 60.5617 85.7118 60.5315C86.4645 61.7358 87.746 62.1063 89.0071 62.6344C85.9924 64.6064 79.939 64.1179 77.9874 58.5168C77.5334 57.2138 77.5357 55.7217 77.5015 54.3124C77.4755 53.2447 77.3671 53.0272 76.2746 53.3116C73.9491 53.9171 71.6408 53.9555 69.3722 53.1013C67.0268 52.2183 65.5225 50.5279 64.7532 48.1509C64.546 47.5108 64.6545 47.0337 65.1868 46.6034C68.4491 43.966 70.1668 40.4329 71.0838 36.4282C71.1851 35.986 71.4798 35.5881 71.7503 35.1526C72.142 35.4876 72.4682 35.8397 72.8177 36.2984C72.835 36.4384 72.829 36.4716 72.764 36.5334C72.3284 37.0428 71.873 37.4816 71.5894 38.0123C70.6211 39.8237 71.3276 41.5446 73.2593 42.1991C73.2751 42.2222 73.2982 42.2732 73.2982 42.2732Z" fill="#026510"/>
<path d="M15.7272 28.3411C17.3706 28.9913 18.7823 29.9103 19.432 31.6456C19.6229 32.1555 19.7508 32.689 19.843 33.2834C19.022 33.0709 18.278 32.7426 17.5028 32.5257C17.2134 32.4447 16.703 32.518 16.5634 32.7137C16.4195 32.9152 16.4983 33.4215 16.6639 33.6732C17.471 34.9003 18.6164 35.6213 20.1082 35.7556C20.1106 35.7708 20.1032 35.8006 20.1032 35.8006C20.161 36.6388 20.1212 37.498 20.296 38.3111C20.7296 40.3276 21.8411 40.8402 23.722 39.9909C23.9287 39.8976 24.1383 39.8105 24.4148 39.776C24.0061 41.4316 22.85 41.9772 21.332 41.3102C20.9461 41.1406 20.5867 40.8918 20.187 40.7797C19.9495 40.7131 19.5633 40.7528 19.4154 40.908C19.2628 41.0683 19.2361 41.449 19.3032 41.6923C19.3855 41.9908 19.5812 42.2855 19.7991 42.5142C20.7391 43.5008 21.8147 44.1397 23.2632 43.7893C24.8937 43.3948 25.9765 42.3797 26.421 40.8027C26.6455 40.0062 26.8874 39.6642 27.7239 39.9992C28.0162 40.1162 28.3612 40.1175 28.6843 40.1392C30.5922 40.2676 32.0363 39.2576 32.4617 37.5084C33.6301 38.0652 34.7922 38.6357 35.9701 39.1716C36.4058 39.3698 36.8785 39.4865 37.4091 39.6407C35.6013 42.8526 32.5742 44.0234 29.0767 44.2849C28.3551 44.3388 27.9874 44.5712 27.719 45.2452C26.6345 47.9687 24.2989 49.1352 21.4435 48.4447C17.9117 47.5906 15.2705 44.2767 15.4354 40.7906C15.471 40.0381 15.6847 39.2251 16.054 38.575C16.5007 37.7884 16.434 37.1956 16.0639 36.412C14.8356 33.811 14.5469 31.1278 15.7272 28.3411Z" fill="#026510"/>
<path d="M84.3973 21.1278C89.3641 20.8792 93.7491 23.5875 95.4015 28.0629C96.6819 31.5304 95.6857 34.7139 93.8383 37.7001C93.1846 38.7567 93.1283 38.7774 94.1198 39.5772C95.6037 40.7743 96.69 42.2322 97.1229 44.1226C97.6348 46.3581 96.7599 48.5617 94.6929 49.9968C93.5972 47.6704 91.855 46.0033 89.4756 44.9715C89.7908 44.44 90.1632 44.0218 90.3874 43.5354C91.3474 41.4521 91.4096 39.2937 90.8902 37.0792C91.5379 36.9517 92.1548 36.9416 92.663 36.7014C92.9804 36.5514 93.1337 36.0543 93.3606 35.7129C93.0326 35.5161 92.7244 35.2147 92.3719 35.1483C91.9061 35.0607 91.4047 35.1444 90.9203 35.1777C90.2021 35.2271 89.7648 34.8334 89.702 34.197C89.6405 33.5736 89.6505 32.8723 89.8809 32.308C90.2188 31.4802 90.8209 30.7643 91.2302 29.9599C91.4282 29.5709 91.6584 28.941 91.4844 28.6889C91.2916 28.4095 90.6482 28.3289 90.2114 28.3527C89.1812 28.4089 88.1573 28.5785 87.1219 28.6625C87.113 28.6228 87.0897 28.5448 87.1342 28.4744C87.1513 27.1324 87.1239 25.8608 87.1297 24.5333C87.4906 23.9825 87.8183 23.4876 88.146 22.9926C87.5409 23.0665 86.9359 23.1404 86.2941 23.1617C85.6373 22.4487 85.0173 21.7882 84.3973 21.1278ZM94.8117 45.8899C93.7586 44.8269 93.7277 43.6099 94.2581 42.2997C94.3294 42.1236 94.4294 41.8404 94.3501 41.7455C94.1515 41.5077 93.8197 41.1524 93.6085 41.1931C92.6107 41.3853 91.7401 42.8395 91.7618 44.118C91.7825 45.3426 92.643 46.4922 93.729 46.7128C94.2993 46.8286 94.7816 46.7464 94.8117 45.8899Z" fill="#028101"/>
<path d="M74.6167 26.9299C74.2732 29.2584 73.0604 31.16 71.5965 32.9936C71.3896 31.2759 71.4169 29.4924 71.0523 27.7929C70.1715 23.6868 68.3097 20.1402 64.5471 17.9005C62.6022 16.7429 60.4794 16.3684 58.2513 16.7124C57.4818 16.8312 57.2592 16.6488 57.3698 15.8594C57.8377 12.522 56.6754 9.71088 54.4306 7.30902C53.8939 6.73476 53.8267 6.28849 54.4239 5.70456C55.252 5.69572 56.0532 5.61467 56.8 5.77995C59.0224 6.27183 60.3491 7.68368 60.7554 9.94073C60.853 10.4833 61.0176 11.0164 61.0814 11.562C61.3278 13.6701 62.6185 14.7569 64.5767 15.2199C65.8383 15.5182 67.1296 15.7316 68.3517 16.1473C70.5362 16.8902 72.2594 18.2868 73.5793 20.3156C73.6256 20.4092 73.6251 20.5029 73.5782 20.5522C72.1245 23.2513 72.4431 25.1091 74.6167 26.9299Z" fill="#016510"/>
<path d="M90.8135 37.0993C91.4096 39.2937 91.3474 41.4521 90.3874 43.5354C90.1632 44.0218 89.7908 44.44 89.4205 44.9267C88.8088 44.8831 88.2629 44.7347 87.7175 44.7367C86.7911 44.7402 86.7212 44.2859 86.7479 43.4902C86.7953 42.0768 86.913 40.5954 86.5696 39.2529C85.6905 35.8167 83.2954 33.8278 79.8789 33.0223C79.5137 32.9362 79.1526 32.8329 78.5928 32.686C79.2654 32.0456 79.824 31.5711 80.3159 31.0354C82.4972 28.6599 83.3358 25.8182 82.9632 22.6612C82.8173 21.4246 82.8313 21.3108 84.3196 21.125C85.0173 21.7882 85.6373 22.4487 86.2658 23.2088C86.2581 23.3412 86.242 23.374 86.1607 23.4111C85.7247 23.6691 85.2951 23.8674 84.9934 24.1865C83.9231 25.3182 83.409 26.6535 83.9435 28.1881C84.4192 29.5538 85.4623 30.232 86.9125 30.2862C86.9128 30.3022 86.9028 30.3325 86.904 30.4141C87.1145 31.4047 87.3237 32.3139 87.5348 33.3037C87.5743 33.7365 87.5747 34.0973 87.6556 34.439C88.0799 36.2314 89.0642 37.0613 90.6902 37.0207C90.7307 37.0478 90.8135 37.0993 90.8135 37.0993Z" fill="#016510"/>
<path d="M26.4914 19.3982C26.7472 19.273 26.9745 19.227 27.1711 19.1229C28.9169 18.1984 30.5765 18.3879 32.2062 19.439C32.8269 19.8392 33.4919 20.1809 34.1666 20.4821C34.4278 20.5987 34.7719 20.5296 35.1881 20.5129C35.3721 20.5001 35.4462 20.5195 35.5696 20.5875C37.7751 21.7674 39.3592 21.2904 40.1848 19.1943C40.4294 18.573 40.4758 17.8736 40.6131 17.2101C41.7981 17.2044 43.0136 17.0261 44.1619 17.2286C46.6236 17.6628 48.2715 19.2738 49.4723 21.3937C49.7072 21.8085 49.9839 22.1997 50.3019 22.6221C50.2082 23.3202 49.8711 23.1907 49.3602 22.9655C47.9998 22.3659 46.6467 21.6337 45.2119 21.3415C41.49 20.5837 38.3292 21.8014 35.8491 24.6433C35.1872 25.4018 34.7857 25.3471 34.0456 24.7913C31.87 23.1576 29.3975 22.1702 26.6856 21.9016C25.7676 21.8107 25.6345 21.4592 25.937 20.7143C26.1081 20.2933 26.2782 19.8718 26.4914 19.3982Z" fill="#016410"/>
<path d="M89.4314 8.18125C89.357 8.26012 89.2464 8.30136 89.1358 8.3426C89.1688 8.27617 89.2019 8.20974 89.2785 8.10641C89.3465 8.09422 89.3709 8.11893 89.4314 8.18125Z" fill="black"/>
<path d="M74.907 94.2364C74.9651 94.1454 75.0591 94.0925 75.1532 94.0397C75.1429 94.1285 75.1326 94.2173 75.0693 94.3279C74.9919 94.3248 74.9675 94.2997 74.907 94.2364Z" fill="black"/>
<path d="M33.5147 51.8449C32.934 50.8972 32.337 50.0375 31.8754 49.1103C31.7122 48.7827 31.7268 48.0641 31.9315 47.926C32.2452 47.7143 32.8933 47.6779 33.2253 47.8693C34.6946 48.7159 35.7574 49.9945 36.57 51.4676C38.6321 55.2058 39.1026 59.2108 38.4268 63.3698C38.3169 64.0458 37.9269 64.6957 37.5714 65.302C37.4455 65.5166 36.9944 65.7108 36.7686 65.6462C36.5623 65.5872 36.3507 65.1742 36.3293 64.9025C36.1887 63.1213 36.1217 61.3345 35.9876 59.5528C35.7815 56.815 34.891 54.2873 33.5147 51.8449Z" fill="#E2F4C6"/>
<path d="M61.6246 80.2958C62.1304 81.8021 61.9979 82.2242 60.7906 83.0441C58.7118 83.7807 56.8941 83.2716 55.2365 82.05C54.4408 81.4636 53.8836 80.6676 54.1483 79.6186C54.4148 78.5626 55.2746 78.1393 56.274 78.0455C58.4188 77.8443 60.2567 78.4354 61.6246 80.2958Z" fill="#FA0CB0"/>
<path d="M36.2042 73.7696C38.074 71.6524 42.346 72.917 43.4969 74.9584C44.0984 76.0254 43.6862 77.182 42.5468 77.7187C40.6589 78.6081 37.3716 77.629 36.2623 75.8477C35.8552 75.1939 35.7398 74.5261 36.2042 73.7696Z" fill="#FA0CB0"/>
<path d="M58.5259 72.509C59.4102 72.8599 60.2058 73.3502 61.0453 72.5505C61.1275 72.4722 61.5855 72.5956 61.6032 72.6807C61.6463 72.8877 61.6067 73.205 61.4672 73.3375C61.1798 73.6105 60.8054 73.7919 60.2562 74.1472C60.8854 74.1787 61.2717 74.1413 61.6223 74.2361C61.8468 74.2969 62.0186 74.5528 62.2141 74.7213C62.0303 74.8726 61.8291 75.1705 61.6655 75.1511C60.7288 75.04 60.0705 75.3207 59.4183 76.0634C58.85 76.7107 57.9461 76.6546 57.1648 76.2131C56.4576 75.8136 56.0391 75.1902 56.1187 74.3795C56.2049 73.5011 56.7406 72.8983 57.592 72.6278C57.8637 72.5415 58.1621 72.539 58.5259 72.509Z" fill="#05153E"/>
<path d="M41.3284 68.2595C41.1774 67.9361 40.983 67.6241 40.8936 67.2845C40.8483 67.1123 40.9653 66.738 41.0566 66.7217C41.2608 66.6852 41.6586 66.7699 41.6909 66.8855C41.9578 67.8384 42.6914 67.9386 43.5089 68.1138C44.5838 68.3443 45.2309 69.4947 45.0342 70.5105C44.8477 71.4738 43.984 72.1211 42.9671 72.0597C41.9102 71.9959 41.1494 71.1962 40.9723 70.1314C40.9105 69.7603 40.5723 69.427 40.3335 69.0957C40.0793 68.7433 39.4972 68.214 39.5695 68.1068C40.0323 67.4208 40.4267 68.1504 40.8632 68.2882C40.9243 68.3075 40.98 68.3436 41.1312 68.429C41.259 68.4105 41.2937 68.335 41.3284 68.2595Z" fill="#04143E"/>
<path d="M52.7576 74.9917C52.9407 74.6043 53.0551 74.257 53.2531 73.9667C53.3583 73.8126 53.6084 73.7575 53.7931 73.6576C53.8989 73.8685 54.1062 74.0854 54.094 74.2892C54.0228 75.4727 52.4215 77.1605 51.0419 77.5624C49.5896 77.9856 48.089 77.5131 47.221 76.3136C46.3473 75.1065 46.1456 73.7503 46.5194 72.3269C46.5831 72.0845 46.9178 71.9132 47.1273 71.7091C47.2359 71.9759 47.421 72.2381 47.4376 72.5106C47.4765 73.1496 47.3488 73.8067 47.4446 74.4327C47.6144 75.542 48.2445 76.3461 49.3685 76.6536C50.4926 76.9611 51.4081 76.5373 52.1843 75.7449C52.3873 75.5377 52.5452 75.2864 52.7576 74.9917Z" fill="#07183E"/>
<path d="M56.2758 25.7992C56.3996 25.3826 56.4938 25.0374 56.609 24.6994C57.0188 23.4971 57.9127 23.2673 58.8205 24.1808C59.5062 24.8708 60.0794 25.6727 60.7654 26.3624C62.2018 27.8065 63.4468 27.4846 64.0913 25.5437C64.1832 25.2667 64.2138 24.9165 64.4025 24.7359C64.7462 24.4071 65.1872 24.1801 65.5876 23.9107C65.8589 24.3184 66.3211 24.7043 66.3705 25.1373C66.6839 27.8869 63.8016 30.3357 61.1302 29.5436C60.0383 29.2199 59.0461 28.5599 57.861 27.9809C57.6826 28.2898 57.4219 28.7498 57.1531 29.2051C56.134 30.9313 54.6097 31.7134 53.0439 31.2587C51.4906 30.8075 50.636 29.6554 50.2291 28.167C50.1477 27.8693 50.4095 27.4777 50.5131 27.1294C50.8227 27.2423 51.1783 27.2933 51.432 27.4815C51.8994 27.8283 52.2856 28.2831 52.744 28.6439C53.6981 29.3948 54.5762 29.3106 55.2246 28.276C55.6818 27.5464 55.9199 26.6795 56.2758 25.7992Z" fill="#8ED527"/>
<path d="M56.2651 40.0954C57.359 39.6373 57.8157 38.6712 58.2 37.6532C58.3489 37.2586 58.4023 36.8122 58.618 36.4629C58.8687 36.0572 59.2499 35.7321 59.5744 35.3721C59.9279 35.7083 60.3478 35.9991 60.6174 36.3927C60.9247 36.8414 61.0526 37.4094 61.3377 37.8773C62.3238 39.4957 64.3053 39.4876 65.3056 37.8906C65.6326 37.3685 65.8965 36.4821 66.7062 36.9878C67.3801 37.4086 67.0022 38.1671 66.7059 38.7441C65.2732 41.5341 62.2191 41.9062 60.1427 39.557C59.9947 39.3897 59.84 39.2283 59.7673 39.1496C58.8127 40.0466 57.8885 40.9149 56.8431 41.754C56.5695 41.1816 56.4173 40.6385 56.2651 40.0954Z" fill="#8DD527"/>
<path d="M41.6573 32.1789C41.4616 32.188 41.3298 32.1631 41.117 32.0585C40.7054 31.1966 40.3748 30.4145 40.0442 29.6325C42.1109 29.8772 42.4081 29.6863 43.0531 27.7091C43.1131 27.5252 43.1388 27.279 43.2699 27.1788C43.6687 26.8738 44.1208 26.4127 44.5335 26.431C44.8117 26.4434 45.2435 27.1449 45.2879 27.5714C45.5061 29.6657 44.225 31.441 42.19 32.0243C42.0349 32.0688 41.8774 32.105 41.6573 32.1789Z" fill="#8DD527"/>
<path d="M56.2145 40.0868C56.4174 40.6385 56.5696 41.1816 56.7754 41.7685C56.8291 41.8124 56.8112 41.8778 56.802 41.9105C55.3236 42.2516 53.8924 42.1422 52.8217 41.0201C52.253 40.424 51.9448 39.562 51.5971 38.7851C51.5161 38.6041 51.7526 38.2809 51.8431 38.0232C52.0971 38.1125 52.3895 38.149 52.5981 38.3008C53.3476 38.8461 54.0402 39.4747 54.8159 39.9765C55.1014 40.1612 55.5583 40.0809 55.9998 40.0913C56.0964 40.0668 56.1302 40.0725 56.2145 40.0868Z" fill="#6AA32D"/>
<path d="M40.0175 29.5976C40.3748 30.4145 40.7054 31.1966 41.0522 32.0404C39.1818 32.2505 37.5245 30.9292 37.3509 29.0931C37.3248 28.817 37.5164 28.5203 37.6073 28.2331C37.8604 28.3268 38.135 28.385 38.3623 28.5217C38.8279 28.8018 39.2681 29.124 39.7845 29.4432C39.8967 29.493 39.9436 29.528 40.0175 29.5976Z" fill="#69A32C"/>
<path d="M86.2912 53.2589C84.2811 53.1829 83.1404 52.4459 82.73 51.0152C82.4239 49.948 82.8297 48.7542 83.6998 48.1626C84.2993 47.755 84.667 47.9336 84.7224 48.6622C84.7297 48.7586 84.7173 48.8567 84.7109 48.9538C84.5808 50.9179 84.9702 51.3285 86.9454 51.1831C87.5863 51.136 88.2152 50.9368 88.8519 50.8194C90.0946 50.5902 90.6418 51.1391 90.4233 52.3946C90.3733 52.6815 90.2722 52.9609 90.2375 53.2489C90.0525 54.7828 90.3646 55.28 91.8236 55.8018C92.3451 55.9883 93.0747 56.1693 92.8463 56.8311C92.7014 57.2506 92.0394 57.6737 91.5501 57.7601C89.6667 58.0929 87.9491 56.4882 87.8336 54.4081C87.7581 53.0484 87.7581 53.0484 86.2912 53.2589Z" fill="#8DD527"/>
<path d="M73.3797 42.2851C73.2982 42.2732 73.2751 42.2223 73.2677 42.1205C73.3896 41.348 73.5187 40.6772 73.6479 40.0064C74.5906 40.524 75.456 40.1647 76.3502 39.8184C77.0055 39.5646 77.8963 39.0728 78.3457 39.314C79.2213 39.7838 78.351 40.6249 78.29 41.3158C78.2561 41.7013 78.1374 42.0911 78.171 42.4688C78.3433 44.4048 79.7802 45.0833 81.3948 44.0149C81.6926 43.8179 81.9724 43.5587 82.3007 43.4532C82.606 43.3552 82.9649 43.424 83.3002 43.4193C83.2954 43.7588 83.3881 44.1379 83.2689 44.4308C82.774 45.6476 80.832 46.7494 79.4245 46.6746C77.9361 46.5954 76.6397 45.5319 76.2133 43.971C76.0445 43.3534 75.9918 42.704 75.8939 42.1148C75.0604 42.1772 74.2608 42.2371 73.3797 42.2851Z" fill="#8ED527"/>
<path d="M75.7825 48.9505C74.8909 49.7292 74.0735 50.6198 73.0619 51.1073C71.7046 51.7613 69.8658 51.0056 69.0568 49.7401C68.2293 48.4459 68.3768 46.5961 69.4836 45.509C69.7875 45.2107 70.3118 45.1368 70.735 44.96C70.8503 45.3705 70.9896 45.7765 71.0696 46.1938C71.1039 46.373 71.0191 46.5766 70.9811 46.7677C70.8115 47.6202 70.8807 48.4178 71.674 48.9378C72.4738 49.462 73.2251 49.1961 73.9783 48.6193C74.3921 48.3651 74.7509 48.1608 75.1441 47.9369C75.3594 48.2621 75.5647 48.5724 75.7825 48.9505Z" fill="#6BA42D"/>
<path d="M85.7178 60.4916C85.6196 60.5617 85.5233 60.5833 85.4357 60.6234C83.5751 61.4756 82.0183 61.2812 81.1001 60.0798C80.2012 58.9036 80.3104 56.3768 81.3949 55.1512C81.6721 54.838 82.2009 54.7476 82.6141 54.5548C82.6682 54.968 82.7779 55.3839 82.7583 55.7935C82.7435 56.104 82.5574 56.4046 82.4586 56.7131C81.8621 58.5758 82.6436 59.557 84.7008 59.407C85.1349 59.7577 85.4346 60.0647 85.7343 60.3717C85.7343 60.3717 85.7239 60.4517 85.7178 60.4916Z" fill="#6AA32D"/>
<path d="M73.6231 39.9398C73.5188 40.6772 73.3896 41.348 73.252 42.0974C71.3276 41.5447 70.6211 39.8237 71.5894 38.0123C71.873 37.4817 72.3284 37.0428 72.8167 36.5816C73.155 37.2227 73.3816 37.844 73.6082 38.4654C73.6049 38.9346 73.6016 39.4039 73.6231 39.9398Z" fill="#6BA42D"/>
<path d="M73.6389 38.4044C73.3816 37.844 73.155 37.2227 72.8757 36.5531C72.829 36.4716 72.8351 36.4384 72.849 36.3548C73.2074 36.027 73.5291 35.6938 73.9189 35.4925C74.1595 35.3683 74.5039 35.4453 74.8017 35.432C74.8046 35.7002 74.8962 36.0097 74.794 36.2288C74.4569 36.9513 74.0498 37.6411 73.6389 38.4044Z" fill="#8BD327"/>
<path d="M85.7895 60.3344C85.4346 60.0647 85.1349 59.7577 84.7859 59.4056C84.7365 59.3605 84.7607 59.2842 84.7717 59.2457C84.9705 59.1917 85.1689 59.1304 85.3437 59.1711C85.6302 59.2378 85.9013 59.3707 86.1789 59.4756C86.0675 59.7494 85.9561 60.0232 85.7895 60.3344Z" fill="#8BD327"/>
<path d="M63.8983 9.34982C65.3411 10.4776 66.3065 10.4322 67.7263 9.40698C68.1263 9.11815 68.7508 9.14036 69.2724 9.01991C69.2594 9.59059 69.432 10.2543 69.2008 10.7157C68.2504 12.6121 65.4282 13.2053 63.3905 12.0277C61.5192 10.9461 60.5477 8.26515 61.3356 6.2521C61.4505 5.95843 61.7658 5.74318 61.9884 5.49164C62.1693 5.76239 62.3892 6.01516 62.5241 6.30718C62.9813 7.29693 63.4085 8.30058 63.8983 9.34982Z" fill="#8DD527"/>
<path d="M74.967 23.8314C75.63 25.4219 76.26 25.6623 77.82 24.9226C78.0243 24.8257 78.2347 24.6567 78.4383 24.6624C78.7972 24.6724 79.3448 24.6826 79.4631 24.8912C79.6222 25.1719 79.5765 25.7181 79.3963 26.0156C78.6341 27.2745 76.6924 27.6707 74.8694 26.8746C74.8569 25.7761 74.9119 24.8038 74.967 23.8314Z" fill="#8ED527"/>
<path d="M74.9674 23.7778C74.9119 24.8038 74.8568 25.7762 74.8034 26.8374C74.8049 26.9263 74.7109 26.9319 74.6638 26.9309C72.4431 25.1091 72.1245 23.2513 73.6126 20.6128C74.0708 21.5629 74.4477 22.5017 74.8247 23.4406C74.8724 23.5351 74.9201 23.6296 74.9674 23.7778Z" fill="#6AA42D"/>
<path d="M74.8216 23.3524C74.4478 22.5017 74.0708 21.5629 73.6595 20.5635C73.6251 20.5029 73.6257 20.4092 73.624 20.3624C74.0684 19.9965 74.5144 19.6772 74.9605 19.358C74.9903 19.9276 75.0638 20.4991 75.0389 21.0662C75.0065 21.8007 74.8956 22.5317 74.8216 23.3524Z" fill="#8BD327"/>
<path d="M42.5185 11.6983C43.0722 11.0735 43.4895 11.4892 43.9117 11.7799C44.4183 12.1288 44.876 12.5791 45.426 12.8287C46.7728 13.4398 47.9731 12.5769 48.0848 10.9837C48.1232 10.4358 48.1066 9.8759 48.2243 9.34574C48.2735 9.12402 48.5833 8.8718 48.8199 8.81154C48.974 8.77229 49.2803 9.01023 49.3975 9.19905C50.0713 10.2845 49.7377 12.6754 48.7722 13.9158C47.8977 15.0393 46.3455 15.4842 44.8915 15.028C43.4172 14.5655 42.4016 13.1891 42.5185 11.6983Z" fill="#8CD427"/>
<path d="M40.5793 17.1983C40.4758 17.8736 40.4294 18.573 40.1848 19.1943C39.3592 21.2904 37.7751 21.7674 35.6261 20.5499C36.1838 19.971 36.7342 19.4783 37.2845 18.9855C38.0023 19.0465 38.4974 18.7517 38.8582 17.993C39.4701 17.6672 39.9734 17.4172 40.4768 17.1671C40.4768 17.1671 40.5456 17.1865 40.5793 17.1983Z" fill="#6AA42D"/>
<path d="M37.2223 18.9589C36.7342 19.4783 36.1838 19.9711 35.5769 20.5014C35.4462 20.5195 35.3721 20.5001 35.2426 20.4668C34.1648 19.6605 33.3589 18.7031 33.0183 17.4321C32.9442 17.1555 32.9602 16.6302 33.0936 16.5697C33.3634 16.4474 33.8213 16.4463 34.0607 16.6062C34.7304 17.0534 35.3186 17.6206 35.9581 18.1158C36.3403 18.4119 36.7582 18.6617 37.2223 18.9589Z" fill="#8DD427"/>
<path d="M40.4802 17.0849C39.9734 17.4172 39.4701 17.6672 38.9001 17.9415C38.8353 17.5125 38.8439 17.0591 38.8375 16.6059C38.8292 16.0196 39.0388 15.4674 39.6575 15.5434C39.9637 15.581 40.2206 16.1624 40.4591 16.5245C40.5348 16.6394 40.4791 16.8409 40.4802 17.0849Z" fill="#8DD427"/>
<path d="M20.0276 33.4433C21.1654 33.4112 21.4912 33.1231 21.6506 31.9685C21.7435 31.2953 21.7366 30.5996 21.904 29.9472C22.2044 28.7763 22.9513 28.3786 24.1108 28.6997C24.6722 28.8551 25.2084 29.1011 25.7697 29.2565C26.8635 29.5593 27.3609 29.2491 27.5858 28.1454C27.6633 27.7651 27.6303 27.3534 27.7575 26.995C27.863 26.6977 28.0829 26.332 28.3411 26.2361C28.5141 26.1719 28.961 26.4656 29.0834 26.7032C30.4273 29.3133 29.0706 31.7995 26.5266 32.0301C25.8923 32.0876 25.227 32.0184 24.6007 31.8882C23.9618 31.7555 23.7243 31.9112 23.6616 32.5695C23.437 34.9306 22.5951 35.71 20.1891 35.7951C20.1032 35.8006 20.1106 35.7708 20.108 35.6645C20.0795 34.8532 20.0535 34.1483 20.0276 33.4433Z" fill="#8ED527"/>
<path d="M32.4483 37.459C32.0363 39.2576 30.5922 40.2676 28.6843 40.1392C28.3612 40.1174 28.0162 40.1162 27.7239 39.9991C26.8874 39.6641 26.6455 40.0062 26.421 40.8027C25.9765 42.3797 24.8937 43.3948 23.2632 43.7893C21.8147 44.1397 20.7391 43.5007 19.7991 42.5141C19.5812 42.2855 19.3855 41.9907 19.3032 41.6923C19.2361 41.449 19.2628 41.0682 19.4154 40.908C19.5633 40.7527 19.9495 40.7131 20.187 40.7797C20.5867 40.8918 20.9461 41.1406 21.332 41.3101C22.85 41.9772 24.0061 41.4315 24.4852 39.7578C24.4873 39.684 24.4626 39.6456 24.4892 39.6455C24.5655 39.5979 24.5904 39.5397 24.5903 39.471C24.6215 39.4177 24.6547 39.3658 24.796 39.2727C25.9093 38.6676 26.9167 38.1051 27.9241 37.5426C27.9568 37.5392 27.9895 37.5359 28.1257 37.5756C29.0636 37.8667 29.9275 38.2435 30.4459 37.1112C30.4459 37.1112 30.4964 37.0978 30.6108 37.1034C31.2845 37.1768 31.8439 37.2445 32.4033 37.3122C32.4139 37.3446 32.4245 37.3771 32.4483 37.459Z" fill="#6BA42D"/>
<path d="M20.0117 33.4268C20.0535 34.1483 20.0795 34.8533 20.1057 35.6493C18.6164 35.6212 17.471 34.9003 16.6639 33.6732C16.4983 33.4215 16.4195 32.9152 16.5634 32.7137C16.703 32.518 17.2134 32.4447 17.5028 32.5257C18.278 32.7426 19.022 33.0709 19.8489 33.357C19.9194 33.3589 19.9957 33.4103 20.0117 33.4268Z" fill="#6BA52D"/>
<path d="M27.8568 37.5158C26.9167 38.1051 25.9093 38.6677 24.8314 39.243C24.7732 39.1597 24.7769 39.0615 24.7992 38.9677C25.2849 36.9246 25.8521 36.6446 27.8568 37.5158Z" fill="#8CD327"/>
<path d="M32.4033 37.2393C31.8439 37.2445 31.2845 37.1768 30.6369 37.1042C30.8502 36.7729 31.1518 36.4465 31.4534 36.1201C31.77 36.4688 32.0866 36.8176 32.4033 37.2393Z" fill="#8DD527"/>
<path d="M30.368 37.113C29.9275 38.2435 29.0636 37.8667 28.1749 37.5735C28.8438 37.3904 29.5669 37.2526 30.368 37.113Z" fill="#0F6F13"/>
<path d="M24.5579 39.4988C24.5904 39.5397 24.5655 39.5979 24.4677 39.6533C24.4497 39.6123 24.485 39.5675 24.5579 39.4988Z" fill="#026510"/>
<path d="M90.8902 37.0792C90.8135 37.0993 90.7307 37.0478 90.6688 36.9623C89.6308 35.6445 88.6547 34.4122 87.678 33.1051C87.9359 32.2074 88.1945 31.3846 88.4785 30.4807C87.9256 30.4287 87.4142 30.3806 86.9028 30.3325C86.9028 30.3325 86.9128 30.3022 86.9198 30.2084C86.9949 29.6438 87.0629 29.173 87.1309 28.7023C88.1573 28.5786 89.1812 28.4089 90.2114 28.3528C90.6482 28.3289 91.2916 28.4095 91.4844 28.6889C91.6584 28.941 91.4282 29.571 91.2302 29.96C90.8209 30.7643 90.2188 31.4802 89.8809 32.308C89.6505 32.8723 89.6405 33.5737 89.702 34.197C89.7648 34.8334 90.2021 35.2272 90.9203 35.1778C91.4047 35.1444 91.9061 35.0607 92.3719 35.1484C92.7244 35.2147 93.0326 35.5161 93.3606 35.7129C93.1337 36.0543 92.9804 36.5514 92.663 36.7014C92.1548 36.9417 91.5379 36.9517 90.8902 37.0792Z" fill="#8DD527"/>
<path d="M87.1219 28.6626C87.0629 29.173 86.9949 29.6438 86.9195 30.1924C85.4623 30.232 84.4192 29.5538 83.9435 28.1881C83.409 26.6535 83.923 25.3182 84.9933 24.1865C85.2951 23.8674 85.7246 23.6691 86.2228 23.4495C86.5382 23.8573 86.7263 24.231 86.8851 24.6646C86.5225 25.4046 86.0803 26.0545 85.8821 26.7718C85.6085 27.7618 86.0311 28.2796 87.0897 28.5448C87.0897 28.5448 87.113 28.6228 87.1219 28.6626Z" fill="#6BA42D"/>
<path d="M94.8332 45.9569C94.7816 46.7464 94.2993 46.8287 93.729 46.7128C92.643 46.4922 91.7825 45.3426 91.7618 44.118C91.7401 42.8396 92.6107 41.3853 93.6086 41.1931C93.8197 41.1524 94.1516 41.5077 94.3501 41.7455C94.4294 41.8404 94.3294 42.1236 94.2581 42.2997C93.7277 43.6099 93.7586 44.8269 94.8332 45.9569Z" fill="#8DD527"/>
<path d="M87.1342 28.4743C86.0311 28.2795 85.6085 27.7617 85.8821 26.7718C86.0804 26.0545 86.5225 25.4046 86.9307 24.661C87.0055 24.5975 87.0964 24.5891 87.0964 24.5891C87.1239 25.8607 87.1513 27.1323 87.1342 28.4743Z" fill="#046711"/>
<path d="M87.1297 24.5334C87.0964 24.5892 87.0055 24.5975 86.96 24.6011C86.7263 24.231 86.5382 23.8573 86.2879 23.4453C86.242 23.374 86.2581 23.3412 86.3025 23.2613C86.9359 23.1404 87.5409 23.0665 88.146 22.9926C87.8183 23.4876 87.4906 23.9826 87.1297 24.5334Z" fill="#8DD427"/>
<path d="M87.6786 33.18C88.6547 34.4122 89.6308 35.6445 90.6283 36.9352C89.0642 37.0613 88.0799 36.2314 87.6556 34.4391C87.5747 34.0973 87.5742 33.7365 87.5711 33.2931C87.6055 33.2016 87.6786 33.18 87.6786 33.18Z" fill="#69A42C"/>
<path d="M87.678 33.1051C87.6786 33.18 87.6055 33.2016 87.5692 33.2123C87.3236 32.3139 87.1144 31.4048 86.904 30.4141C87.4142 30.3806 87.9256 30.4287 88.4785 30.4807C88.1945 31.3846 87.9359 32.2074 87.678 33.1051Z" fill="#088402"/>
<path d="M41.2885 68.2938C41.2937 68.335 41.259 68.4105 41.1981 68.4432C41.1974 68.3763 41.2229 68.3522 41.2885 68.2938Z" fill="#91D628"/>
</g>
<defs>
<clipPath id="clip0_118_1153">
<rect width="100" height="100" fill="white"/>
</clipPath>
</defs>
</svg>
