<svg width="174" height="30" viewBox="0 0 174 30" fill="none" xmlns="http://www.w3.org/2000/svg">
<path d="M14.72 29.44C12.96 29.44 11.4533 29.1333 10.2 28.52C8.94667 27.88 7.93333 27.0533 7.16 26.04C6.38667 25 5.81333 23.88 5.44 22.68C5.06667 21.4533 4.88 20.2533 4.88 19.08C4.88 17.6133 5.05333 16.2533 5.4 15C5.77333 13.7467 6.34667 12.6533 7.12 11.72C7.89333 10.76 8.90667 10.0133 10.16 9.48C11.4133 8.94667 12.9333 8.68 14.72 8.68C16.7733 8.68 18.5867 9.12 20.16 10C21.76 10.8533 23.0133 12.0533 23.92 13.6C24.8533 15.1467 25.32 16.9733 25.32 19.08C25.32 21.1333 24.8533 22.9467 23.92 24.52C22.9867 26.0667 21.72 27.28 20.12 28.16C18.52 29.0133 16.72 29.44 14.72 29.44ZM13.04 25.44C14.4533 25.44 15.68 25.1733 16.72 24.64C17.76 24.1067 18.56 23.3733 19.12 22.44C19.7067 21.48 20 20.36 20 19.08C20 17.16 19.3867 15.6133 18.16 14.44C16.96 13.2667 15.2533 12.68 13.04 12.68C11.4933 12.68 10.1467 12.9333 9 13.44C7.85333 13.9467 6.96 14.68 6.32 15.64C5.70667 16.5733 5.4 17.72 5.4 19.08C5.4 20.3333 5.70667 21.44 6.32 22.4C6.93333 23.36 7.81333 24.1067 8.96 24.64C10.1067 25.1733 11.4667 25.44 13.04 25.44ZM5.4 1.12V23.88C5.4 24.7333 5.36 25.6533 5.28 26.64C5.2 27.6 5.12 28.3867 5.04 29H0.2V1.12H5.4ZM29.1656 9.12H34.3656V29H29.1656V9.12ZM42.0056 13.4C40.5123 13.4 39.219 13.6933 38.1256 14.28C37.0323 14.84 36.1523 15.5333 35.4856 16.36C34.819 17.1867 34.3523 17.9867 34.0856 18.76L34.0456 16.56C34.0723 16.24 34.179 15.7733 34.3656 15.16C34.5523 14.52 34.8323 13.84 35.2056 13.12C35.579 12.3733 36.0723 11.6667 36.6856 11C37.299 10.3067 38.0456 9.74667 38.9256 9.32C39.8056 8.89333 40.8323 8.68 42.0056 8.68V13.4ZM56.9403 29.48C54.4336 29.48 52.2203 29.08 50.3003 28.28C48.407 27.48 46.927 26.32 45.8603 24.8C44.7936 23.2533 44.2603 21.36 44.2603 19.12C44.2603 16.88 44.7936 14.9867 45.8603 13.44C46.927 11.8667 48.407 10.68 50.3003 9.88C52.2203 9.08 54.4336 8.68 56.9403 8.68C59.447 8.68 61.6336 9.08 63.5003 9.88C65.3936 10.68 66.8736 11.8667 67.9403 13.44C69.007 14.9867 69.5403 16.88 69.5403 19.12C69.5403 21.36 69.007 23.2533 67.9403 24.8C66.8736 26.32 65.3936 27.48 63.5003 28.28C61.6336 29.08 59.447 29.48 56.9403 29.48ZM56.9403 25.48C58.327 25.48 59.567 25.24 60.6603 24.76C61.7803 24.2533 62.6603 23.5333 63.3003 22.6C63.9403 21.64 64.2603 20.48 64.2603 19.12C64.2603 17.76 63.9403 16.6 63.3003 15.64C62.6603 14.6533 61.7936 13.9067 60.7003 13.4C59.607 12.8933 58.3536 12.64 56.9403 12.64C55.5536 12.64 54.3003 12.8933 53.1803 13.4C52.0603 13.9067 51.167 14.64 50.5003 15.6C49.8603 16.56 49.5403 17.7333 49.5403 19.12C49.5403 20.48 49.8603 21.64 50.5003 22.6C51.1403 23.5333 52.0203 24.2533 53.1403 24.76C54.2603 25.24 55.527 25.48 56.9403 25.48ZM96.9844 21.16C96.851 22.8933 96.291 24.3867 95.3044 25.64C94.3444 26.8933 93.011 27.8533 91.3044 28.52C89.5977 29.16 87.571 29.48 85.2244 29.48C82.771 29.48 80.571 29.0933 78.6244 28.32C76.7044 27.52 75.1844 26.36 74.0644 24.84C72.971 23.2933 72.4244 21.3867 72.4244 19.12C72.4244 16.8533 72.971 14.9467 74.0644 13.4C75.1844 11.8533 76.7044 10.68 78.6244 9.88C80.571 9.08 82.771 8.68 85.2244 8.68C87.571 8.68 89.5844 9.01333 91.2644 9.68C92.9444 10.32 94.2644 11.2533 95.2244 12.48C96.211 13.7067 96.7844 15.1867 96.9444 16.92H92.1844C91.731 15.5867 90.891 14.5467 89.6644 13.8C88.4377 13.0533 86.9577 12.68 85.2244 12.68C83.8377 12.68 82.571 12.92 81.4244 13.4C80.3044 13.88 79.3977 14.6 78.7044 15.56C78.0377 16.4933 77.7044 17.68 77.7044 19.12C77.7044 20.5333 78.0377 21.72 78.7044 22.68C79.371 23.6133 80.2777 24.32 81.4244 24.8C82.571 25.2533 83.8377 25.48 85.2244 25.48C87.091 25.48 88.611 25.1067 89.7844 24.36C90.9844 23.6133 91.7977 22.5467 92.2244 21.16H96.9844ZM124.406 21.16C124.273 22.8933 123.713 24.3867 122.726 25.64C121.766 26.8933 120.433 27.8533 118.726 28.52C117.02 29.16 114.993 29.48 112.646 29.48C110.193 29.48 107.993 29.0933 106.046 28.32C104.126 27.52 102.606 26.36 101.486 24.84C100.393 23.2933 99.8463 21.3867 99.8463 19.12C99.8463 16.8533 100.393 14.9467 101.486 13.4C102.606 11.8533 104.126 10.68 106.046 9.88C107.993 9.08 110.193 8.68 112.646 8.68C114.993 8.68 117.006 9.01333 118.686 9.68C120.366 10.32 121.686 11.2533 122.646 12.48C123.633 13.7067 124.206 15.1867 124.366 16.92H119.606C119.153 15.5867 118.313 14.5467 117.086 13.8C115.86 13.0533 114.38 12.68 112.646 12.68C111.26 12.68 109.993 12.92 108.846 13.4C107.726 13.88 106.82 14.6 106.126 15.56C105.46 16.4933 105.126 17.68 105.126 19.12C105.126 20.5333 105.46 21.72 106.126 22.68C106.793 23.6133 107.7 24.32 108.846 24.8C109.993 25.2533 111.26 25.48 112.646 25.48C114.513 25.48 116.033 25.1067 117.206 24.36C118.406 23.6133 119.22 22.5467 119.646 21.16H124.406ZM139.948 29.48C137.441 29.48 135.228 29.08 133.308 28.28C131.415 27.48 129.935 26.32 128.868 24.8C127.801 23.2533 127.268 21.36 127.268 19.12C127.268 16.88 127.801 14.9867 128.868 13.44C129.935 11.8667 131.415 10.68 133.308 9.88C135.228 9.08 137.441 8.68 139.948 8.68C142.455 8.68 144.641 9.08 146.508 9.88C148.401 10.68 149.881 11.8667 150.948 13.44C152.015 14.9867 152.548 16.88 152.548 19.12C152.548 21.36 152.015 23.2533 150.948 24.8C149.881 26.32 148.401 27.48 146.508 28.28C144.641 29.08 142.455 29.48 139.948 29.48ZM139.948 25.48C141.335 25.48 142.575 25.24 143.668 24.76C144.788 24.2533 145.668 23.5333 146.308 22.6C146.948 21.64 147.268 20.48 147.268 19.12C147.268 17.76 146.948 16.6 146.308 15.64C145.668 14.6533 144.801 13.9067 143.708 13.4C142.615 12.8933 141.361 12.64 139.948 12.64C138.561 12.64 137.308 12.8933 136.188 13.4C135.068 13.9067 134.175 14.64 133.508 15.6C132.868 16.56 132.548 17.7333 132.548 19.12C132.548 20.48 132.868 21.64 133.508 22.6C134.148 23.5333 135.028 24.2533 136.148 24.76C137.268 25.24 138.535 25.48 139.948 25.48ZM156.792 1.12H161.992V29H156.792V1.12ZM173.212 0.399999V4.96H167.172V0.399999H173.212ZM167.572 9.12H172.772V29H167.572V9.12Z" fill="#00B730"/>
</svg>
