<svg width="80" height="80" viewBox="0 0 80 80" fill="none" xmlns="http://www.w3.org/2000/svg">
<path d="M40 11.5347C24.2792 11.5347 11.5344 24.2801 11.5344 39.9989C11.5344 55.7189 24.2792 68.4657 40 68.4657C55.72 68.4657 68.4656 55.7203 68.4656 39.9989C68.4656 24.2788 55.72 11.5347 40 11.5347ZM19.2647 50.7215C19.2647 41.8293 27.0733 41.8308 28.8064 39.5072L29.0055 38.4457C26.5706 37.2111 24.8513 34.2365 24.8513 30.758C24.8513 26.1739 27.8327 22.4577 31.5103 22.4577C34.4059 22.4577 36.8628 24.7662 37.7794 27.9826C34.0963 29.1526 31.3717 33.1475 31.3717 37.895C31.3717 41.1648 32.6598 44.1681 34.7753 46.0784C34.4355 46.2527 34.0577 46.4299 33.733 46.5824C32.0267 47.3831 29.6627 48.494 27.9563 50.7215H19.2647ZM40.0866 57.8585H27.7537C27.7537 48.9663 35.563 48.9692 37.296 46.6429L37.4945 45.5827C35.0597 44.3494 33.341 41.3749 33.341 37.8951C33.341 33.3124 36.3224 29.5948 40 29.5948C43.6771 29.5948 46.6578 33.3124 46.6578 37.8951C46.6578 41.3447 44.97 44.3028 42.5682 45.5552L42.7934 46.7596C44.6954 48.9719 52.2444 49.1174 52.2444 57.8599H40.0866L40.0866 57.8585ZM52.041 50.7215C50.3353 48.4954 47.9706 47.3831 46.2649 46.5824C45.9286 46.4258 45.557 46.2515 45.224 46.0798C47.3375 44.1681 48.6277 41.1565 48.6277 37.895C48.6277 33.1489 45.9038 29.154 42.222 27.9839C43.138 24.7662 45.5947 22.4577 48.491 22.4577C52.1688 22.4577 55.1488 26.1753 55.1488 30.758C55.1488 34.2076 53.4611 37.1642 51.0592 38.4182L51.2843 39.6225C53.1864 41.8349 60.736 41.9791 60.736 50.7229H52.041L52.041 50.7215Z" fill="#00B730"/>
</svg>
