<svg width="80" height="80" viewBox="0 0 80 80" fill="none" xmlns="http://www.w3.org/2000/svg">
<path d="M40 11.5347C24.2793 11.5347 11.5344 24.2801 11.5344 39.9989C11.5344 55.7189 24.2793 68.4657 40 68.4657C55.7201 68.4657 68.4657 55.7203 68.4657 39.9989C68.4657 24.2788 55.7201 11.5347 40 11.5347ZM19.2648 50.7215C19.2648 41.8293 27.0734 41.8308 28.8064 39.5072L29.0056 38.4457C26.5706 37.2111 24.8514 34.2365 24.8514 30.758C24.8514 26.1739 27.8328 22.4577 31.5104 22.4577C34.406 22.4577 36.8628 24.7662 37.7794 27.9826C34.0963 29.1526 31.3717 33.1475 31.3717 37.895C31.3717 41.1648 32.6598 44.1681 34.7754 46.0784C34.4355 46.2527 34.0578 46.4299 33.7331 46.5824C32.0268 47.3831 29.6628 48.494 27.9564 50.7215H19.2648ZM40.0866 57.8585H27.7537C27.7537 48.9663 35.5631 48.9692 37.2961 46.6429L37.4945 45.5827C35.0598 44.3494 33.341 41.3749 33.341 37.8951C33.341 33.3124 36.3224 29.5948 40.0001 29.5948C43.6771 29.5948 46.6579 33.3124 46.6579 37.8951C46.6579 41.3447 44.9701 44.3028 42.5682 45.5552L42.7935 46.7596C44.6955 48.9719 52.2445 49.1174 52.2445 57.8599H40.0867L40.0866 57.8585ZM52.041 50.7215C50.3354 48.4954 47.9707 47.3831 46.265 46.5824C45.9286 46.4258 45.5571 46.2515 45.2241 46.0798C47.3375 44.1681 48.6278 41.1565 48.6278 37.895C48.6278 33.1489 45.9039 29.154 42.222 27.9839C43.1381 24.7662 45.5948 22.4577 48.4911 22.4577C52.1688 22.4577 55.1489 26.1753 55.1489 30.758C55.1489 34.2076 53.4611 37.1642 51.0592 38.4182L51.2844 39.6225C53.1865 41.8349 60.7361 41.9791 60.7361 50.7229H52.0411L52.041 50.7215Z" fill="#55D47B"/>
</svg>
