<svg width="32" height="32" viewBox="0 0 32 32" fill="none" xmlns="http://www.w3.org/2000/svg">
<path d="M16 31C7.72852 31 1 24.271 1 16C1 7.729 7.72852 1 16 1C24.2715 1 31 7.729 31 16C31 24.271 24.2715 31 16 31ZM16 3C8.83203 3 3 8.83154 3 16C3 23.1685 8.83203 29 16 29C23.168 29 29 23.1685 29 16C29 8.83154 23.168 3 16 3Z" fill="#00B730"/>
<path d="M16 19.4C18.3564 19.4 20.2667 17.4898 20.2667 15.1334C20.2667 12.777 18.3564 10.8667 16 10.8667C13.6436 10.8667 11.7333 12.777 11.7333 15.1334C11.7333 17.4898 13.6436 19.4 16 19.4Z" fill="#00B730"/>
<path d="M16 30C18.4011 30 20.66 29.3938 22.6349 28.3287C22.2101 25.1 19.4553 22.5083 16 22.5083C12.5447 22.5083 9.78992 25.1 9.36511 28.3287C11.34 29.3938 13.5989 30 16 30Z" fill="#00B730"/>
</svg>
